solid OpenSCAD_Model
  facet normal 0.402739 0.915315 0
    outer loop
      vertex 5.579 20.135 5
      vertex 6.104 19.904 5
      vertex 5.579 20.135 0
    endloop
  endfacet
  facet normal 0.402739 0.915315 0
    outer loop
      vertex 5.579 20.135 0
      vertex 6.104 19.904 5
      vertex 6.104 19.904 0
    endloop
  endfacet
  facet normal 0.0136973 0.999906 0
    outer loop
      vertex 5.141 20.141 5
      vertex 5.579 20.135 5
      vertex 5.141 20.141 0
    endloop
  endfacet
  facet normal 0.0136973 0.999906 0
    outer loop
      vertex 5.141 20.141 0
      vertex 5.579 20.135 5
      vertex 5.579 20.135 0
    endloop
  endfacet
  facet normal 0 0 -1
    outer loop
      vertex 1.141 20.141 0
      vertex 0.141 22.141 0
      vertex 3.141 21.141 0
    endloop
  endfacet
  facet normal 0 0 -1
    outer loop
      vertex 6.647 19.542 0
      vertex 5.141 20.141 0
      vertex 6.104 19.904 0
    endloop
  endfacet
  facet normal 0 0 -1
    outer loop
      vertex 5.141 20.141 0
      vertex 5.579 20.135 0
      vertex 6.104 19.904 0
    endloop
  endfacet
  facet normal 0 0 -1
    outer loop
      vertex 7.141 19.141 0
      vertex 5.141 20.141 0
      vertex 6.647 19.542 0
    endloop
  endfacet
  facet normal 0 0 -1
    outer loop
      vertex 22.085 22.067 0
      vertex 7.141 19.141 0
      vertex 15.112 22.872 0
    endloop
  endfacet
  facet normal 0 0 -1
    outer loop
      vertex 27.086 19.299 0
      vertex 7.141 19.141 0
      vertex 22.085 22.067 0
    endloop
  endfacet
  facet normal 0 0 -1
    outer loop
      vertex 14.141 19.141 0
      vertex 7.141 19.141 0
      vertex 27.086 19.299 0
    endloop
  endfacet
  facet normal 0 0 -1
    outer loop
      vertex 16.141 17.641 0
      vertex 17.141 17.141 0
      vertex 31.856 9.442 0
    endloop
  endfacet
  facet normal 0 0 -1
    outer loop
      vertex 15.141 18.141 0
      vertex 31.856 9.442 0
      vertex 31.141 7.141 0
    endloop
  endfacet
  facet normal 0 0 -1
    outer loop
      vertex 15.312 13.994 0
      vertex 29.724 6.369 0
      vertex 29.141 6.141 0
    endloop
  endfacet
  facet normal 0 0 -1
    outer loop
      vertex 15.312 13.994 0
      vertex 29.141 6.141 0
      vertex 27.151 5.094 0
    endloop
  endfacet
  facet normal 0 0 -1
    outer loop
      vertex 28.644 2.129 0
      vertex 31.141 2.141 0
      vertex 29.141 1.141 0
    endloop
  endfacet
  facet normal 0 0 -1
    outer loop
      vertex 28.146 3.117 0
      vertex 31.141 2.141 0
      vertex 28.644 2.129 0
    endloop
  endfacet
  facet normal 0 0 -1
    outer loop
      vertex 27.649 4.105 0
      vertex 31.141 2.141 0
      vertex 28.146 3.117 0
    endloop
  endfacet
  facet normal 0 0 -1
    outer loop
      vertex 29.141 6.141 0
      vertex 31.141 2.141 0
      vertex 27.151 5.094 0
    endloop
  endfacet
  facet normal 0 0 -1
    outer loop
      vertex 13.141 16.141 0
      vertex 29.724 6.369 0
      vertex 15.312 13.994 0
    endloop
  endfacet
  facet normal 0 0 -1
    outer loop
      vertex 15.312 13.994 0
      vertex 27.151 5.094 0
      vertex 16.425 11.627 0
    endloop
  endfacet
  facet normal 0 0 -1
    outer loop
      vertex 21.141 5.141 0
      vertex 23.141 0.141 0
      vertex 21.141 0.141 0
    endloop
  endfacet
  facet normal 0 0 -1
    outer loop
      vertex 21.141 5.141 0
      vertex 23.141 5.141 0
      vertex 23.141 0.141 0
    endloop
  endfacet
  facet normal 0 0 -1
    outer loop
      vertex 6.09 13.055 0
      vertex 8.331 8.42 0
      vertex 9.141 6.141 0
    endloop
  endfacet
  facet normal 0 0 -1
    outer loop
      vertex 16.396 9.018 0
      vertex 23.141 5.141 0
      vertex 21.141 5.141 0
    endloop
  endfacet
  facet normal 0 0 -1
    outer loop
      vertex 3.141 21.141 0
      vertex 8.141 18.141 0
      vertex 14.457 13.277 0
    endloop
  endfacet
  facet normal 0 0 -1
    outer loop
      vertex 16.425 11.627 0
      vertex 25.183 4.969 0
      vertex 24.192 5.051 0
    endloop
  endfacet
  facet normal 0 0 -1
    outer loop
      vertex 6.09 13.055 0
      vertex 8.115 9.07 0
      vertex 8.331 8.42 0
    endloop
  endfacet
  facet normal 0 0 -1
    outer loop
      vertex 16.425 11.627 0
      vertex 23.141 5.141 0
      vertex 16.396 9.018 0
    endloop
  endfacet
  facet normal 0 0 -1
    outer loop
      vertex 3.141 21.141 0
      vertex 14.457 13.277 0
      vertex 4.141 19.141 0
    endloop
  endfacet
  facet normal 0 0 -1
    outer loop
      vertex 17.141 1.141 0
      vertex 15.141 6.141 0
      vertex 17.141 6.141 0
    endloop
  endfacet
  facet normal 0 0 -1
    outer loop
      vertex 15.141 6.141 0
      vertex 17.141 1.141 0
      vertex 15.141 1.141 0
    endloop
  endfacet
  facet normal 0 0 -1
    outer loop
      vertex 16.396 9.018 0
      vertex 17.141 6.141 0
      vertex 15.141 6.141 0
    endloop
  endfacet
  facet normal 0 0 -1
    outer loop
      vertex 16.396 9.018 0
      vertex 21.141 5.141 0
      vertex 20.273 5.325 0
    endloop
  endfacet
  facet normal 0 0 -1
    outer loop
      vertex 16.425 11.627 0
      vertex 26.156 4.961 0
      vertex 25.183 4.969 0
    endloop
  endfacet
  facet normal 0 0 -1
    outer loop
      vertex 26.156 4.961 0
      vertex 16.425 11.627 0
      vertex 27.151 5.094 0
    endloop
  endfacet
  facet normal 0 0 -1
    outer loop
      vertex 13.141 16.141 0
      vertex 31.141 7.141 0
      vertex 30.738 6.796 0
    endloop
  endfacet
  facet normal 0 0 -1
    outer loop
      vertex 15.141 18.141 0
      vertex 15.641 17.891 0
      vertex 16.141 17.641 0
    endloop
  endfacet
  facet normal 0 0 -1
    outer loop
      vertex 18.141 19.141 0
      vertex 29.141 17.141 0
      vertex 31.028 14.536 0
    endloop
  endfacet
  facet normal 0 0 -1
    outer loop
      vertex 18.141 19.141 0
      vertex 31.028 14.536 0
      vertex 17.141 17.141 0
    endloop
  endfacet
  facet normal 0 0 -1
    outer loop
      vertex 9.752 14.862 0
      vertex 15.508 9.973 0
      vertex 9.967 14.212 0
    endloop
  endfacet
  facet normal 0 0 -1
    outer loop
      vertex 3.141 21.141 0
      vertex 9.535 17.931 0
      vertex 8.881 18.068 0
    endloop
  endfacet
  facet normal 0 0 -1
    outer loop
      vertex 31.876 11.939 0
      vertex 17.141 17.141 0
      vertex 31.028 14.536 0
    endloop
  endfacet
  facet normal 0 0 -1
    outer loop
      vertex 14.141 19.141 0
      vertex 27.086 19.299 0
      vertex 18.141 19.141 0
    endloop
  endfacet
  facet normal 0 0 -1
    outer loop
      vertex 29.141 17.141 0
      vertex 18.141 19.141 0
      vertex 27.086 19.299 0
    endloop
  endfacet
  facet normal 0 0 -1
    outer loop
      vertex 11.141 17.141 0
      vertex 10.242 17.649 0
      vertex 14.141 19.141 0
    endloop
  endfacet
  facet normal 0 0 -1
    outer loop
      vertex 10.242 17.649 0
      vertex 7.141 19.141 0
      vertex 14.141 19.141 0
    endloop
  endfacet
  facet normal 0 0 -1
    outer loop
      vertex 14.141 6.141 0
      vertex 9.967 14.212 0
      vertex 15.508 9.973 0
    endloop
  endfacet
  facet normal 0 0 -1
    outer loop
      vertex 14.141 6.141 0
      vertex 10.046 13.14 0
      vertex 9.967 14.212 0
    endloop
  endfacet
  facet normal 0 0 -1
    outer loop
      vertex 15.508 9.973 0
      vertex 9.752 14.862 0
      vertex 14.457 13.277 0
    endloop
  endfacet
  facet normal 0 0 -1
    outer loop
      vertex 17.141 17.141 0
      vertex 31.876 11.939 0
      vertex 31.856 9.442 0
    endloop
  endfacet
  facet normal 0 0 -1
    outer loop
      vertex 15.141 18.141 0
      vertex 16.141 17.641 0
      vertex 31.856 9.442 0
    endloop
  endfacet
  facet normal 0 0 -1
    outer loop
      vertex 15.141 18.141 0
      vertex 31.141 7.141 0
      vertex 13.141 16.141 0
    endloop
  endfacet
  facet normal 0 0 -1
    outer loop
      vertex 9.535 17.931 0
      vertex 7.141 19.141 0
      vertex 10.242 17.649 0
    endloop
  endfacet
  facet normal 0 0 -1
    outer loop
      vertex 13.141 16.141 0
      vertex 30.261 6.563 0
      vertex 29.724 6.369 0
    endloop
  endfacet
  facet normal 0 0 -1
    outer loop
      vertex 13.141 16.141 0
      vertex 30.738 6.796 0
      vertex 30.261 6.563 0
    endloop
  endfacet
  facet normal 0 0 -1
    outer loop
      vertex 3.046 17.001 0
      vertex 4.292 9.914 0
      vertex 4.548 6.861 0
    endloop
  endfacet
  facet normal 0 0 -1
    outer loop
      vertex 16.396 9.018 0
      vertex 20.273 5.325 0
      vertex 19.21 5.608 0
    endloop
  endfacet
  facet normal 0 0 -1
    outer loop
      vertex 16.396 9.018 0
      vertex 18.112 5.908 0
      vertex 17.141 6.141 0
    endloop
  endfacet
  facet normal 0 0 -1
    outer loop
      vertex 5.62 6.429 0
      vertex 4.811 9.24 0
      vertex 7.141 6.141 0
    endloop
  endfacet
  facet normal 0 0 -1
    outer loop
      vertex 8.331 12.742 0
      vertex 6.09 15.368 0
      vertex 5.881 15.947 0
    endloop
  endfacet
  facet normal 0 0 -1
    outer loop
      vertex 9.041 8.585 0
      vertex 11.585 5.973 0
      vertex 10.34 6.028 0
    endloop
  endfacet
  facet normal 0 0 -1
    outer loop
      vertex 8.65 8.241 0
      vertex 10.34 6.028 0
      vertex 9.141 6.141 0
    endloop
  endfacet
  facet normal 0 0 -1
    outer loop
      vertex 4.141 19.141 0
      vertex 5.881 15.947 0
      vertex 5.571 16.042 0
    endloop
  endfacet
  facet normal 0 0 -1
    outer loop
      vertex 9.141 2.141 0
      vertex 7.141 2.141 0
      vertex 7.141 6.141 0
    endloop
  endfacet
  facet normal 0 0 -1
    outer loop
      vertex 2.409 13.99 0
      vertex 3.522 7.433 0
      vertex 2.139 10.805 0
    endloop
  endfacet
  facet normal 0 0 -1
    outer loop
      vertex 4.501 9.335 0
      vertex 5.62 6.429 0
      vertex 4.548 6.861 0
    endloop
  endfacet
  facet normal 0 0 -1
    outer loop
      vertex 2.409 13.99 0
      vertex 4.548 6.861 0
      vertex 3.522 7.433 0
    endloop
  endfacet
  facet normal 0 0 -1
    outer loop
      vertex 3.522 7.433 0
      vertex 2.141 8.141 0
      vertex 2.139 10.805 0
    endloop
  endfacet
  facet normal 0 0 -1
    outer loop
      vertex 4.292 12.227 0
      vertex 3.046 17.001 0
      vertex 4.501 13.537 0
    endloop
  endfacet
  facet normal 0 0 -1
    outer loop
      vertex 8.115 9.07 0
      vertex 6.09 13.055 0
      vertex 8.036 10.142 0
    endloop
  endfacet
  facet normal 0 0 -1
    outer loop
      vertex 5.141 20.141 0
      vertex 7.141 19.141 0
      vertex 9.535 17.931 0
    endloop
  endfacet
  facet normal 0 0 -1
    outer loop
      vertex 4.141 23.141 0
      vertex 5.141 20.141 0
      vertex 3.141 21.141 0
    endloop
  endfacet
  facet normal 0 0 -1
    outer loop
      vertex 4.141 23.141 0
      vertex 3.141 21.141 0
      vertex 0.141 22.141 0
    endloop
  endfacet
  facet normal 0 0 -1
    outer loop
      vertex 8.115 11.449 0
      vertex 6.09 15.368 0
      vertex 8.331 12.742 0
    endloop
  endfacet
  facet normal 0 0 -1
    outer loop
      vertex 8.65 13.874 0
      vertex 4.141 19.141 0
      vertex 9.041 14.697 0
    endloop
  endfacet
  facet normal 0 0 -1
    outer loop
      vertex 4.811 9.24 0
      vertex 5.62 6.429 0
      vertex 4.501 9.335 0
    endloop
  endfacet
  facet normal 0 0 -1
    outer loop
      vertex 8.65 8.241 0
      vertex 9.141 6.141 0
      vertex 8.331 8.42 0
    endloop
  endfacet
  facet normal 0 0 -1
    outer loop
      vertex 9.041 8.585 0
      vertex 10.34 6.028 0
      vertex 8.65 8.241 0
    endloop
  endfacet
  facet normal 0 0 -1
    outer loop
      vertex 9.432 9.408 0
      vertex 11.585 5.973 0
      vertex 9.041 8.585 0
    endloop
  endfacet
  facet normal 0 0 -1
    outer loop
      vertex 5.191 9.67 0
      vertex 7.141 6.141 0
      vertex 4.811 9.24 0
    endloop
  endfacet
  facet normal 0 0 -1
    outer loop
      vertex 16.396 9.018 0
      vertex 19.21 5.608 0
      vertex 18.112 5.908 0
    endloop
  endfacet
  facet normal 0 0 -1
    outer loop
      vertex 12.858 6.002 0
      vertex 9.752 10.54 0
      vertex 14.141 6.141 0
    endloop
  endfacet
  facet normal 0 0 -1
    outer loop
      vertex 3.141 21.141 0
      vertex 5.141 20.141 0
      vertex 9.535 17.931 0
    endloop
  endfacet
  facet normal 0 0 -1
    outer loop
      vertex 3.046 17.001 0
      vertex 4.215 10.937 0
      vertex 4.292 9.914 0
    endloop
  endfacet
  facet normal 0 0 -1
    outer loop
      vertex 9.041 14.697 0
      vertex 4.141 19.141 0
      vertex 9.432 15.041 0
    endloop
  endfacet
  facet normal 0 0 -1
    outer loop
      vertex 4.141 19.141 0
      vertex 9.752 14.862 0
      vertex 9.432 15.041 0
    endloop
  endfacet
  facet normal 0 0 -1
    outer loop
      vertex 16.425 11.627 0
      vertex 24.192 5.051 0
      vertex 23.141 5.141 0
    endloop
  endfacet
  facet normal 0 0 -1
    outer loop
      vertex 10.046 13.14 0
      vertex 14.141 6.141 0
      vertex 9.967 11.833 0
    endloop
  endfacet
  facet normal 0 0 -1
    outer loop
      vertex 8.141 18.141 0
      vertex 11.748 16.012 0
      vertex 14.457 13.277 0
    endloop
  endfacet
  facet normal 0 0 -1
    outer loop
      vertex 9.967 11.833 0
      vertex 14.141 6.141 0
      vertex 9.752 10.54 0
    endloop
  endfacet
  facet normal 0 0 -1
    outer loop
      vertex 4.141 19.141 0
      vertex 5.571 16.042 0
      vertex 5.191 15.612 0
    endloop
  endfacet
  facet normal 0 0 -1
    outer loop
      vertex 6.09 15.368 0
      vertex 8.115 11.449 0
      vertex 6.167 14.346 0
    endloop
  endfacet
  facet normal 0 0 -1
    outer loop
      vertex 4.292 9.914 0
      vertex 4.501 9.335 0
      vertex 4.548 6.861 0
    endloop
  endfacet
  facet normal 0 0 -1
    outer loop
      vertex 5.571 10.567 0
      vertex 9.141 2.141 0
      vertex 7.141 6.141 0
    endloop
  endfacet
  facet normal 0 0 -1
    outer loop
      vertex 5.571 10.567 0
      vertex 7.141 6.141 0
      vertex 5.191 9.67 0
    endloop
  endfacet
  facet normal 0 0 -1
    outer loop
      vertex 9.141 6.141 0
      vertex 9.141 2.141 0
      vertex 5.571 10.567 0
    endloop
  endfacet
  facet normal 0 0 -1
    outer loop
      vertex 9.141 6.141 0
      vertex 5.571 10.567 0
      vertex 5.881 11.746 0
    endloop
  endfacet
  facet normal 0 0 -1
    outer loop
      vertex 8.331 12.742 0
      vertex 4.141 19.141 0
      vertex 8.65 13.874 0
    endloop
  endfacet
  facet normal 0 0 -1
    outer loop
      vertex 4.501 13.537 0
      vertex 3.046 17.001 0
      vertex 4.811 14.715 0
    endloop
  endfacet
  facet normal 0 0 -1
    outer loop
      vertex 11.585 5.973 0
      vertex 9.432 9.408 0
      vertex 12.858 6.002 0
    endloop
  endfacet
  facet normal 0 0 -1
    outer loop
      vertex 8.331 12.742 0
      vertex 5.881 15.947 0
      vertex 4.141 19.141 0
    endloop
  endfacet
  facet normal 0 0 -1
    outer loop
      vertex 6.09 13.055 0
      vertex 9.141 6.141 0
      vertex 5.881 11.746 0
    endloop
  endfacet
  facet normal 0 0 -1
    outer loop
      vertex 27.151 5.094 0
      vertex 31.141 2.141 0
      vertex 27.649 4.105 0
    endloop
  endfacet
  facet normal 0 0 -1
    outer loop
      vertex 9.752 14.862 0
      vertex 4.141 19.141 0
      vertex 14.457 13.277 0
    endloop
  endfacet
  facet normal 0 0 -1
    outer loop
      vertex 3.141 21.141 0
      vertex 8.881 18.068 0
      vertex 8.141 18.141 0
    endloop
  endfacet
  facet normal 0 0 -1
    outer loop
      vertex 3.046 17.001 0
      vertex 4.292 12.227 0
      vertex 4.215 10.937 0
    endloop
  endfacet
  facet normal 0 0 -1
    outer loop
      vertex 3.046 17.001 0
      vertex 4.548 6.861 0
      vertex 2.409 13.99 0
    endloop
  endfacet
  facet normal 0 0 -1
    outer loop
      vertex 6.167 14.346 0
      vertex 8.115 11.449 0
      vertex 8.036 10.142 0
    endloop
  endfacet
  facet normal 0 0 -1
    outer loop
      vertex 6.167 14.346 0
      vertex 8.036 10.142 0
      vertex 6.09 13.055 0
    endloop
  endfacet
  facet normal 0 0 -1
    outer loop
      vertex 4.141 19.141 0
      vertex 5.191 15.612 0
      vertex 4.811 14.715 0
    endloop
  endfacet
  facet normal 0 0 -1
    outer loop
      vertex 4.141 19.141 0
      vertex 4.811 14.715 0
      vertex 3.046 17.001 0
    endloop
  endfacet
  facet normal 0 0 -1
    outer loop
      vertex 9.752 10.54 0
      vertex 12.858 6.002 0
      vertex 9.432 9.408 0
    endloop
  endfacet
  facet normal 0.5547 0.83205 0
    outer loop
      vertex 6.104 19.904 5
      vertex 6.647 19.542 5
      vertex 6.104 19.904 0
    endloop
  endfacet
  facet normal 0.5547 0.83205 0
    outer loop
      vertex 6.104 19.904 0
      vertex 6.647 19.542 5
      vertex 6.647 19.542 0
    endloop
  endfacet
  facet normal 0 0 1
    outer loop
      vertex 9.432 9.408 5
      vertex 9.041 8.585 5
      vertex 10.34 6.028 5
    endloop
  endfacet
  facet normal 0 0 1
    outer loop
      vertex 0.141 22.141 5
      vertex 1.141 20.141 5
      vertex 3.141 21.141 5
    endloop
  endfacet
  facet normal 0 0 1
    outer loop
      vertex 3.046 17.001 5
      vertex 2.409 13.99 5
      vertex 4.141 19.141 5
    endloop
  endfacet
  facet normal 0 0 1
    outer loop
      vertex 4.501 13.537 5
      vertex 4.811 14.715 5
      vertex 4.141 19.141 5
    endloop
  endfacet
  facet normal 0 0 1
    outer loop
      vertex 2.409 13.99 5
      vertex 2.139 10.805 5
      vertex 4.141 19.141 5
    endloop
  endfacet
  facet normal 0 0 1
    outer loop
      vertex 2.139 10.805 5
      vertex 2.141 8.141 5
      vertex 4.141 19.141 5
    endloop
  endfacet
  facet normal 0 0 1
    outer loop
      vertex 2.141 8.141 5
      vertex 3.522 7.433 5
      vertex 4.141 19.141 5
    endloop
  endfacet
  facet normal 0 0 1
    outer loop
      vertex 6.167 14.346 5
      vertex 8.331 8.42 5
      vertex 8.115 9.07 5
    endloop
  endfacet
  facet normal 0 0 1
    outer loop
      vertex 5.571 10.567 5
      vertex 5.191 9.67 5
      vertex 5.62 6.429 5
    endloop
  endfacet
  facet normal 0 0 1
    outer loop
      vertex 6.09 13.055 5
      vertex 5.881 11.746 5
      vertex 9.141 2.141 5
    endloop
  endfacet
  facet normal 0 0 1
    outer loop
      vertex 7.141 2.141 5
      vertex 9.141 2.141 5
      vertex 7.141 6.141 5
    endloop
  endfacet
  facet normal 0 0 1
    outer loop
      vertex 8.881 18.068 5
      vertex 9.535 17.931 5
      vertex 3.141 21.141 5
    endloop
  endfacet
  facet normal 0 0 1
    outer loop
      vertex 18.112 5.908 5
      vertex 19.21 5.608 5
      vertex 18.141 19.141 5
    endloop
  endfacet
  facet normal 0 0 1
    outer loop
      vertex 9.752 10.54 5
      vertex 9.432 9.408 5
      vertex 11.585 5.973 5
    endloop
  endfacet
  facet normal 0 0 1
    outer loop
      vertex 4.811 14.715 5
      vertex 5.191 15.612 5
      vertex 4.141 19.141 5
    endloop
  endfacet
  facet normal 0 0 1
    outer loop
      vertex 10.046 13.14 5
      vertex 9.967 11.833 5
      vertex 14.141 6.141 5
    endloop
  endfacet
  facet normal 0 0 1
    outer loop
      vertex 9.752 14.862 5
      vertex 15.508 9.973 5
      vertex 3.141 21.141 5
    endloop
  endfacet
  facet normal 0 0 1
    outer loop
      vertex 16.396 9.018 5
      vertex 15.141 1.141 5
      vertex 18.141 19.141 5
    endloop
  endfacet
  facet normal 0 0 1
    outer loop
      vertex 15.508 9.973 5
      vertex 14.457 13.277 5
      vertex 3.141 21.141 5
    endloop
  endfacet
  facet normal 0 0 1
    outer loop
      vertex 16.425 11.627 5
      vertex 16.396 9.018 5
      vertex 18.141 19.141 5
    endloop
  endfacet
  facet normal 0 0 1
    outer loop
      vertex 11.141 17.141 5
      vertex 14.141 19.141 5
      vertex 10.242 17.649 5
    endloop
  endfacet
  facet normal 0 0 1
    outer loop
      vertex 14.457 13.277 5
      vertex 8.141 18.141 5
      vertex 3.141 21.141 5
    endloop
  endfacet
  facet normal 0 0 1
    outer loop
      vertex 14.457 13.277 5
      vertex 11.748 16.012 5
      vertex 8.141 18.141 5
    endloop
  endfacet
  facet normal 0 0 1
    outer loop
      vertex 5.579 20.135 5
      vertex 6.647 19.542 5
      vertex 6.104 19.904 5
    endloop
  endfacet
  facet normal 0 0 1
    outer loop
      vertex 13.141 16.141 5
      vertex 15.312 13.994 5
      vertex 15.141 18.141 5
    endloop
  endfacet
  facet normal 0 0 1
    outer loop
      vertex 17.141 6.141 5
      vertex 18.112 5.908 5
      vertex 18.141 19.141 5
    endloop
  endfacet
  facet normal 0 0 1
    outer loop
      vertex 4.501 9.335 5
      vertex 4.292 9.914 5
      vertex 4.548 6.861 5
    endloop
  endfacet
  facet normal 0 0 1
    outer loop
      vertex 15.312 13.994 5
      vertex 17.141 17.141 5
      vertex 16.141 17.641 5
    endloop
  endfacet
  facet normal 0 0 1
    outer loop
      vertex 15.312 13.994 5
      vertex 16.141 17.641 5
      vertex 15.641 17.891 5
    endloop
  endfacet
  facet normal 0 0 1
    outer loop
      vertex 15.141 6.141 5
      vertex 15.141 1.141 5
      vertex 16.396 9.018 5
    endloop
  endfacet
  facet normal 0 0 1
    outer loop
      vertex 7.141 19.141 5
      vertex 6.647 19.542 5
      vertex 5.141 20.141 5
    endloop
  endfacet
  facet normal 0 0 1
    outer loop
      vertex 15.141 1.141 5
      vertex 17.141 6.141 5
      vertex 18.141 19.141 5
    endloop
  endfacet
  facet normal 0 0 1
    outer loop
      vertex 15.141 1.141 5
      vertex 17.141 1.141 5
      vertex 17.141 6.141 5
    endloop
  endfacet
  facet normal 0 0 1
    outer loop
      vertex 21.141 5.141 5
      vertex 23.141 0.141 5
      vertex 18.141 19.141 5
    endloop
  endfacet
  facet normal 0 0 1
    outer loop
      vertex 23.141 5.141 5
      vertex 24.192 5.051 5
      vertex 18.141 19.141 5
    endloop
  endfacet
  facet normal 0 0 1
    outer loop
      vertex 19.21 5.608 5
      vertex 20.273 5.325 5
      vertex 18.141 19.141 5
    endloop
  endfacet
  facet normal 0 0 1
    outer loop
      vertex 20.273 5.325 5
      vertex 21.141 5.141 5
      vertex 18.141 19.141 5
    endloop
  endfacet
  facet normal 0 0 1
    outer loop
      vertex 21.141 0.141 5
      vertex 23.141 0.141 5
      vertex 21.141 5.141 5
    endloop
  endfacet
  facet normal 0 0 1
    outer loop
      vertex 23.141 0.141 5
      vertex 23.141 5.141 5
      vertex 18.141 19.141 5
    endloop
  endfacet
  facet normal 0 0 1
    outer loop
      vertex 27.151 5.094 5
      vertex 31.141 2.141 5
      vertex 18.141 19.141 5
    endloop
  endfacet
  facet normal 0 0 1
    outer loop
      vertex 27.649 4.105 5
      vertex 28.644 2.129 5
      vertex 27.151 5.094 5
    endloop
  endfacet
  facet normal 0 0 1
    outer loop
      vertex 24.192 5.051 5
      vertex 25.183 4.969 5
      vertex 18.141 19.141 5
    endloop
  endfacet
  facet normal 0 0 1
    outer loop
      vertex 25.183 4.969 5
      vertex 26.156 4.961 5
      vertex 18.141 19.141 5
    endloop
  endfacet
  facet normal 0 0 1
    outer loop
      vertex 26.156 4.961 5
      vertex 27.151 5.094 5
      vertex 18.141 19.141 5
    endloop
  endfacet
  facet normal 0 0 1
    outer loop
      vertex 28.146 3.117 5
      vertex 28.644 2.129 5
      vertex 27.649 4.105 5
    endloop
  endfacet
  facet normal 0 0 1
    outer loop
      vertex 28.644 2.129 5
      vertex 31.141 2.141 5
      vertex 27.151 5.094 5
    endloop
  endfacet
  facet normal 0 0 1
    outer loop
      vertex 29.141 6.141 5
      vertex 29.724 6.369 5
      vertex 18.141 19.141 5
    endloop
  endfacet
  facet normal 0 0 1
    outer loop
      vertex 29.141 1.141 5
      vertex 31.141 2.141 5
      vertex 28.644 2.129 5
    endloop
  endfacet
  facet normal 0 0 1
    outer loop
      vertex 31.141 2.141 5
      vertex 29.141 6.141 5
      vertex 18.141 19.141 5
    endloop
  endfacet
  facet normal 0 0 1
    outer loop
      vertex 29.724 6.369 5
      vertex 30.261 6.563 5
      vertex 18.141 19.141 5
    endloop
  endfacet
  facet normal 0 0 1
    outer loop
      vertex 30.261 6.563 5
      vertex 30.738 6.796 5
      vertex 18.141 19.141 5
    endloop
  endfacet
  facet normal 0 0 1
    outer loop
      vertex 30.738 6.796 5
      vertex 31.141 7.141 5
      vertex 18.141 19.141 5
    endloop
  endfacet
  facet normal 0 0 1
    outer loop
      vertex 31.141 7.141 5
      vertex 31.856 9.442 5
      vertex 18.141 19.141 5
    endloop
  endfacet
  facet normal 0 0 1
    outer loop
      vertex 31.856 9.442 5
      vertex 31.876 11.939 5
      vertex 18.141 19.141 5
    endloop
  endfacet
  facet normal 0 0 1
    outer loop
      vertex 31.876 11.939 5
      vertex 31.028 14.536 5
      vertex 18.141 19.141 5
    endloop
  endfacet
  facet normal 0 0 1
    outer loop
      vertex 31.028 14.536 5
      vertex 29.141 17.141 5
      vertex 18.141 19.141 5
    endloop
  endfacet
  facet normal 0 0 1
    outer loop
      vertex 29.141 17.141 5
      vertex 27.086 19.299 5
      vertex 18.141 19.141 5
    endloop
  endfacet
  facet normal 0 0 1
    outer loop
      vertex 9.535 17.931 5
      vertex 7.141 19.141 5
      vertex 5.141 20.141 5
    endloop
  endfacet
  facet normal 0 0 1
    outer loop
      vertex 9.535 17.931 5
      vertex 10.242 17.649 5
      vertex 7.141 19.141 5
    endloop
  endfacet
  facet normal 0 0 1
    outer loop
      vertex 5.579 20.135 5
      vertex 5.141 20.141 5
      vertex 6.647 19.542 5
    endloop
  endfacet
  facet normal 0 0 1
    outer loop
      vertex 5.141 20.141 5
      vertex 4.141 23.141 5
      vertex 3.141 21.141 5
    endloop
  endfacet
  facet normal 0 0 1
    outer loop
      vertex 8.036 10.142 5
      vertex 8.115 11.449 5
      vertex 6.09 15.368 5
    endloop
  endfacet
  facet normal 0 0 1
    outer loop
      vertex 3.141 21.141 5
      vertex 4.141 23.141 5
      vertex 0.141 22.141 5
    endloop
  endfacet
  facet normal 0 0 1
    outer loop
      vertex 8.115 11.449 5
      vertex 8.331 12.742 5
      vertex 5.881 15.947 5
    endloop
  endfacet
  facet normal 0 0 1
    outer loop
      vertex 9.535 17.931 5
      vertex 5.141 20.141 5
      vertex 3.141 21.141 5
    endloop
  endfacet
  facet normal 0 0 1
    outer loop
      vertex 6.167 14.346 5
      vertex 6.09 13.055 5
      vertex 9.141 6.141 5
    endloop
  endfacet
  facet normal 0 0 1
    outer loop
      vertex 6.09 15.368 5
      vertex 6.167 14.346 5
      vertex 8.036 10.142 5
    endloop
  endfacet
  facet normal 0 0 1
    outer loop
      vertex 9.041 8.585 5
      vertex 8.65 8.241 5
      vertex 10.34 6.028 5
    endloop
  endfacet
  facet normal 0 0 1
    outer loop
      vertex 9.967 11.833 5
      vertex 12.858 6.002 5
      vertex 14.141 6.141 5
    endloop
  endfacet
  facet normal 0 0 1
    outer loop
      vertex 8.65 13.874 5
      vertex 9.041 14.697 5
      vertex 3.141 21.141 5
    endloop
  endfacet
  facet normal 0 0 1
    outer loop
      vertex 9.041 14.697 5
      vertex 9.432 15.041 5
      vertex 3.141 21.141 5
    endloop
  endfacet
  facet normal 0 0 1
    outer loop
      vertex 9.432 15.041 5
      vertex 9.752 14.862 5
      vertex 3.141 21.141 5
    endloop
  endfacet
  facet normal 0 0 1
    outer loop
      vertex 9.967 14.212 5
      vertex 10.046 13.14 5
      vertex 15.508 9.973 5
    endloop
  endfacet
  facet normal 0 0 1
    outer loop
      vertex 10.046 13.14 5
      vertex 14.141 6.141 5
      vertex 15.508 9.973 5
    endloop
  endfacet
  facet normal 0 0 1
    outer loop
      vertex 9.967 11.833 5
      vertex 9.752 10.54 5
      vertex 12.858 6.002 5
    endloop
  endfacet
  facet normal 0 0 1
    outer loop
      vertex 9.752 14.862 5
      vertex 9.967 14.212 5
      vertex 15.508 9.973 5
    endloop
  endfacet
  facet normal 0 0 1
    outer loop
      vertex 9.432 9.408 5
      vertex 10.34 6.028 5
      vertex 11.585 5.973 5
    endloop
  endfacet
  facet normal 0 0 1
    outer loop
      vertex 11.585 5.973 5
      vertex 12.858 6.002 5
      vertex 9.752 10.54 5
    endloop
  endfacet
  facet normal 0 0 1
    outer loop
      vertex 5.191 15.612 5
      vertex 5.571 16.042 5
      vertex 4.141 19.141 5
    endloop
  endfacet
  facet normal 0 0 1
    outer loop
      vertex 4.292 12.227 5
      vertex 4.501 13.537 5
      vertex 4.141 19.141 5
    endloop
  endfacet
  facet normal 0 0 1
    outer loop
      vertex 5.881 15.947 5
      vertex 3.141 21.141 5
      vertex 4.141 19.141 5
    endloop
  endfacet
  facet normal 0 0 1
    outer loop
      vertex 8.65 8.241 5
      vertex 8.331 8.42 5
      vertex 9.141 6.141 5
    endloop
  endfacet
  facet normal 0 0 1
    outer loop
      vertex 9.141 6.141 5
      vertex 10.34 6.028 5
      vertex 8.65 8.241 5
    endloop
  endfacet
  facet normal 0 0 1
    outer loop
      vertex 3.522 7.433 5
      vertex 4.215 10.937 5
      vertex 4.141 19.141 5
    endloop
  endfacet
  facet normal 0 0 1
    outer loop
      vertex 4.215 10.937 5
      vertex 4.292 12.227 5
      vertex 4.141 19.141 5
    endloop
  endfacet
  facet normal 0 0 1
    outer loop
      vertex 5.881 15.947 5
      vertex 6.09 15.368 5
      vertex 8.115 11.449 5
    endloop
  endfacet
  facet normal 0 0 1
    outer loop
      vertex 5.881 15.947 5
      vertex 8.331 12.742 5
      vertex 3.141 21.141 5
    endloop
  endfacet
  facet normal 0 0 1
    outer loop
      vertex 8.331 12.742 5
      vertex 8.65 13.874 5
      vertex 3.141 21.141 5
    endloop
  endfacet
  facet normal 0 0 1
    outer loop
      vertex 5.571 16.042 5
      vertex 5.881 15.947 5
      vertex 4.141 19.141 5
    endloop
  endfacet
  facet normal 0 0 1
    outer loop
      vertex 8.115 9.07 5
      vertex 8.036 10.142 5
      vertex 6.167 14.346 5
    endloop
  endfacet
  facet normal 0 0 1
    outer loop
      vertex 5.881 11.746 5
      vertex 5.571 10.567 5
      vertex 7.141 6.141 5
    endloop
  endfacet
  facet normal 0 0 1
    outer loop
      vertex 9.141 2.141 5
      vertex 9.141 6.141 5
      vertex 6.09 13.055 5
    endloop
  endfacet
  facet normal 0 0 1
    outer loop
      vertex 6.167 14.346 5
      vertex 9.141 6.141 5
      vertex 8.331 8.42 5
    endloop
  endfacet
  facet normal 0 0 1
    outer loop
      vertex 7.141 6.141 5
      vertex 9.141 2.141 5
      vertex 5.881 11.746 5
    endloop
  endfacet
  facet normal 0 0 1
    outer loop
      vertex 5.191 9.67 5
      vertex 4.811 9.24 5
      vertex 5.62 6.429 5
    endloop
  endfacet
  facet normal 0 0 1
    outer loop
      vertex 5.62 6.429 5
      vertex 7.141 6.141 5
      vertex 5.571 10.567 5
    endloop
  endfacet
  facet normal 0 0 1
    outer loop
      vertex 4.811 9.24 5
      vertex 4.501 9.335 5
      vertex 4.548 6.861 5
    endloop
  endfacet
  facet normal 0 0 1
    outer loop
      vertex 4.548 6.861 5
      vertex 5.62 6.429 5
      vertex 4.811 9.24 5
    endloop
  endfacet
  facet normal 0 0 1
    outer loop
      vertex 3.522 7.433 5
      vertex 4.292 9.914 5
      vertex 4.215 10.937 5
    endloop
  endfacet
  facet normal 0 0 1
    outer loop
      vertex 3.522 7.433 5
      vertex 4.548 6.861 5
      vertex 4.292 9.914 5
    endloop
  endfacet
  facet normal 0 0 1
    outer loop
      vertex 8.141 18.141 5
      vertex 8.881 18.068 5
      vertex 3.141 21.141 5
    endloop
  endfacet
  facet normal 0 0 1
    outer loop
      vertex 15.312 13.994 5
      vertex 15.641 17.891 5
      vertex 15.141 18.141 5
    endloop
  endfacet
  facet normal 0 0 1
    outer loop
      vertex 17.141 17.141 5
      vertex 16.425 11.627 5
      vertex 18.141 19.141 5
    endloop
  endfacet
  facet normal 0 0 1
    outer loop
      vertex 15.312 13.994 5
      vertex 16.425 11.627 5
      vertex 17.141 17.141 5
    endloop
  endfacet
  facet normal 0 0 1
    outer loop
      vertex 15.112 22.872 5
      vertex 27.086 19.299 5
      vertex 22.085 22.067 5
    endloop
  endfacet
  facet normal 0 0 1
    outer loop
      vertex 15.112 22.872 5
      vertex 18.141 19.141 5
      vertex 27.086 19.299 5
    endloop
  endfacet
  facet normal 0 0 1
    outer loop
      vertex 15.112 22.872 5
      vertex 14.141 19.141 5
      vertex 18.141 19.141 5
    endloop
  endfacet
  facet normal 0 0 1
    outer loop
      vertex 15.112 22.872 5
      vertex 10.242 17.649 5
      vertex 14.141 19.141 5
    endloop
  endfacet
  facet normal 0 0 1
    outer loop
      vertex 15.112 22.872 5
      vertex 7.141 19.141 5
      vertex 10.242 17.649 5
    endloop
  endfacet
  facet normal 0.948683 0.316228 0
    outer loop
      vertex 4.141 23.141 0
      vertex 4.141 23.141 5
      vertex 5.141 20.141 5
    endloop
  endfacet
  facet normal 0.948683 0.316228 0
    outer loop
      vertex 5.141 20.141 0
      vertex 4.141 23.141 0
      vertex 5.141 20.141 5
    endloop
  endfacet
  facet normal -0.894427 -0.447214 0
    outer loop
      vertex 1.141 20.141 0
      vertex 1.141 20.141 5
      vertex 0.141 22.141 0
    endloop
  endfacet
  facet normal -0.894427 -0.447214 0
    outer loop
      vertex 0.141 22.141 0
      vertex 1.141 20.141 5
      vertex 0.141 22.141 5
    endloop
  endfacet
  facet normal -0.242536 0.970143 0
    outer loop
      vertex 0.141 22.141 5
      vertex 4.141 23.141 5
      vertex 0.141 22.141 0
    endloop
  endfacet
  facet normal -0.242536 0.970143 0
    outer loop
      vertex 0.141 22.141 0
      vertex 4.141 23.141 5
      vertex 4.141 23.141 0
    endloop
  endfacet
  facet normal 0.447214 -0.894427 0
    outer loop
      vertex 1.141 20.141 0
      vertex 3.141 21.141 0
      vertex 3.141 21.141 5
    endloop
  endfacet
  facet normal 0.447214 -0.894427 0
    outer loop
      vertex 1.141 20.141 5
      vertex 1.141 20.141 0
      vertex 3.141 21.141 5
    endloop
  endfacet
  facet normal -0.894427 -0.447214 0
    outer loop
      vertex 4.141 19.141 0
      vertex 4.141 19.141 5
      vertex 3.141 21.141 0
    endloop
  endfacet
  facet normal -0.894427 -0.447214 0
    outer loop
      vertex 3.141 21.141 0
      vertex 4.141 19.141 5
      vertex 3.141 21.141 5
    endloop
  endfacet
  facet normal -0.890229 0.455514 0
    outer loop
      vertex 3.046 17.001 5
      vertex 4.141 19.141 5
      vertex 3.046 17.001 0
    endloop
  endfacet
  facet normal -0.890229 0.455514 0
    outer loop
      vertex 3.046 17.001 0
      vertex 4.141 19.141 5
      vertex 4.141 19.141 0
    endloop
  endfacet
  facet normal -0.978346 0.206977 0
    outer loop
      vertex 2.409 13.99 5
      vertex 3.046 17.001 5
      vertex 2.409 13.99 0
    endloop
  endfacet
  facet normal -0.978346 0.206977 0
    outer loop
      vertex 2.409 13.99 0
      vertex 3.046 17.001 5
      vertex 3.046 17.001 0
    endloop
  endfacet
  facet normal -0.996426 0.0844694 0
    outer loop
      vertex 2.139 10.805 5
      vertex 2.409 13.99 5
      vertex 2.139 10.805 0
    endloop
  endfacet
  facet normal -0.996426 0.0844694 0
    outer loop
      vertex 2.139 10.805 0
      vertex 2.409 13.99 5
      vertex 2.409 13.99 0
    endloop
  endfacet
  facet normal -1 -0.000750751 0
    outer loop
      vertex 2.141 8.141 0
      vertex 2.141 8.141 5
      vertex 2.139 10.805 0
    endloop
  endfacet
  facet normal -1 -0.000750751 0
    outer loop
      vertex 2.139 10.805 0
      vertex 2.141 8.141 5
      vertex 2.139 10.805 5
    endloop
  endfacet
  facet normal -0.456212 -0.889871 0
    outer loop
      vertex 2.141 8.141 0
      vertex 3.522 7.433 0
      vertex 3.522 7.433 5
    endloop
  endfacet
  facet normal -0.456212 -0.889871 0
    outer loop
      vertex 2.141 8.141 5
      vertex 2.141 8.141 0
      vertex 3.522 7.433 5
    endloop
  endfacet
  facet normal -0.486943 -0.873434 0
    outer loop
      vertex 3.522 7.433 0
      vertex 4.548 6.861 0
      vertex 4.548 6.861 5
    endloop
  endfacet
  facet normal -0.486943 -0.873434 0
    outer loop
      vertex 3.522 7.433 5
      vertex 3.522 7.433 0
      vertex 4.548 6.861 5
    endloop
  endfacet
  facet normal -0.373776 -0.927519 0
    outer loop
      vertex 4.548 6.861 0
      vertex 5.62 6.429 0
      vertex 5.62 6.429 5
    endloop
  endfacet
  facet normal -0.373776 -0.927519 0
    outer loop
      vertex 4.548 6.861 5
      vertex 4.548 6.861 0
      vertex 5.62 6.429 5
    endloop
  endfacet
  facet normal -0.186043 -0.982542 0
    outer loop
      vertex 5.62 6.429 0
      vertex 7.141 6.141 0
      vertex 7.141 6.141 5
    endloop
  endfacet
  facet normal -0.186043 -0.982542 0
    outer loop
      vertex 5.62 6.429 5
      vertex 5.62 6.429 0
      vertex 7.141 6.141 5
    endloop
  endfacet
  facet normal -1 0 0
    outer loop
      vertex 7.141 2.141 5
      vertex 7.141 6.141 5
      vertex 7.141 2.141 0
    endloop
  endfacet
  facet normal -1 0 0
    outer loop
      vertex 7.141 2.141 0
      vertex 7.141 6.141 5
      vertex 7.141 6.141 0
    endloop
  endfacet
  facet normal 0 -1 0
    outer loop
      vertex 7.141 2.141 0
      vertex 9.141 2.141 0
      vertex 9.141 2.141 5
    endloop
  endfacet
  facet normal 0 -1 0
    outer loop
      vertex 7.141 2.141 5
      vertex 7.141 2.141 0
      vertex 9.141 2.141 5
    endloop
  endfacet
  facet normal 1 0 0
    outer loop
      vertex 9.141 2.141 0
      vertex 9.141 6.141 0
      vertex 9.141 6.141 5
    endloop
  endfacet
  facet normal 1 0 0
    outer loop
      vertex 9.141 2.141 5
      vertex 9.141 2.141 0
      vertex 9.141 6.141 5
    endloop
  endfacet
  facet normal -0.0938294 -0.995588 0
    outer loop
      vertex 9.141 6.141 0
      vertex 10.34 6.028 0
      vertex 10.34 6.028 5
    endloop
  endfacet
  facet normal -0.0938294 -0.995588 0
    outer loop
      vertex 9.141 6.141 5
      vertex 9.141 6.141 0
      vertex 10.34 6.028 5
    endloop
  endfacet
  facet normal -0.0441337 -0.999026 0
    outer loop
      vertex 10.34 6.028 0
      vertex 11.585 5.973 0
      vertex 11.585 5.973 5
    endloop
  endfacet
  facet normal -0.0441337 -0.999026 0
    outer loop
      vertex 10.34 6.028 5
      vertex 10.34 6.028 0
      vertex 11.585 5.973 5
    endloop
  endfacet
  facet normal 0.0227749 -0.999741 0
    outer loop
      vertex 11.585 5.973 0
      vertex 12.858 6.002 0
      vertex 12.858 6.002 5
    endloop
  endfacet
  facet normal 0.0227749 -0.999741 0
    outer loop
      vertex 11.585 5.973 5
      vertex 11.585 5.973 0
      vertex 12.858 6.002 5
    endloop
  endfacet
  facet normal 0.10771 -0.994182 0
    outer loop
      vertex 12.858 6.002 0
      vertex 14.141 6.141 0
      vertex 14.141 6.141 5
    endloop
  endfacet
  facet normal 0.10771 -0.994182 0
    outer loop
      vertex 12.858 6.002 5
      vertex 12.858 6.002 0
      vertex 14.141 6.141 5
    endloop
  endfacet
  facet normal 0.941864 -0.335994 0
    outer loop
      vertex 14.141 6.141 0
      vertex 15.508 9.973 0
      vertex 15.508 9.973 5
    endloop
  endfacet
  facet normal 0.941864 -0.335994 0
    outer loop
      vertex 14.141 6.141 5
      vertex 14.141 6.141 0
      vertex 15.508 9.973 5
    endloop
  endfacet
  facet normal 0.952949 0.303132 0
    outer loop
      vertex 14.457 13.277 0
      vertex 14.457 13.277 5
      vertex 15.508 9.973 5
    endloop
  endfacet
  facet normal 0.952949 0.303132 0
    outer loop
      vertex 15.508 9.973 0
      vertex 14.457 13.277 0
      vertex 15.508 9.973 5
    endloop
  endfacet
  facet normal 0.710476 0.703722 0
    outer loop
      vertex 11.748 16.012 0
      vertex 11.748 16.012 5
      vertex 14.457 13.277 5
    endloop
  endfacet
  facet normal 0.710476 0.703722 0
    outer loop
      vertex 14.457 13.277 0
      vertex 11.748 16.012 0
      vertex 14.457 13.277 5
    endloop
  endfacet
  facet normal 0.508303 0.861178 0
    outer loop
      vertex 8.141 18.141 5
      vertex 11.748 16.012 5
      vertex 8.141 18.141 0
    endloop
  endfacet
  facet normal 0.508303 0.861178 0
    outer loop
      vertex 8.141 18.141 0
      vertex 11.748 16.012 5
      vertex 11.748 16.012 0
    endloop
  endfacet
  facet normal -0.0981721 -0.995169 0
    outer loop
      vertex 8.141 18.141 0
      vertex 8.881 18.068 0
      vertex 8.881 18.068 5
    endloop
  endfacet
  facet normal -0.0981721 -0.995169 0
    outer loop
      vertex 8.141 18.141 5
      vertex 8.141 18.141 0
      vertex 8.881 18.068 5
    endloop
  endfacet
  facet normal -0.20503 -0.978756 0
    outer loop
      vertex 8.881 18.068 0
      vertex 9.535 17.931 0
      vertex 9.535 17.931 5
    endloop
  endfacet
  facet normal -0.20503 -0.978756 0
    outer loop
      vertex 8.881 18.068 5
      vertex 8.881 18.068 0
      vertex 9.535 17.931 5
    endloop
  endfacet
  facet normal -0.370484 -0.928839 0
    outer loop
      vertex 9.535 17.931 0
      vertex 10.242 17.649 0
      vertex 10.242 17.649 5
    endloop
  endfacet
  facet normal -0.370484 -0.928839 0
    outer loop
      vertex 9.535 17.931 5
      vertex 9.535 17.931 0
      vertex 10.242 17.649 5
    endloop
  endfacet
  facet normal -0.491962 -0.870617 0
    outer loop
      vertex 10.242 17.649 0
      vertex 11.141 17.141 0
      vertex 11.141 17.141 5
    endloop
  endfacet
  facet normal -0.491962 -0.870617 0
    outer loop
      vertex 10.242 17.649 5
      vertex 10.242 17.649 0
      vertex 11.141 17.141 5
    endloop
  endfacet
  facet normal 0.5547 -0.83205 0
    outer loop
      vertex 11.141 17.141 0
      vertex 14.141 19.141 0
      vertex 14.141 19.141 5
    endloop
  endfacet
  facet normal 0.5547 -0.83205 0
    outer loop
      vertex 11.141 17.141 5
      vertex 11.141 17.141 0
      vertex 14.141 19.141 5
    endloop
  endfacet
  facet normal 0 -1 0
    outer loop
      vertex 14.141 19.141 0
      vertex 18.141 19.141 0
      vertex 18.141 19.141 5
    endloop
  endfacet
  facet normal 0 -1 0
    outer loop
      vertex 14.141 19.141 5
      vertex 14.141 19.141 0
      vertex 18.141 19.141 5
    endloop
  endfacet
  facet normal -0.894427 0.447214 0
    outer loop
      vertex 17.141 17.141 5
      vertex 18.141 19.141 5
      vertex 17.141 17.141 0
    endloop
  endfacet
  facet normal -0.894427 0.447214 0
    outer loop
      vertex 17.141 17.141 0
      vertex 18.141 19.141 5
      vertex 18.141 19.141 0
    endloop
  endfacet
  facet normal 0.447214 0.894427 0
    outer loop
      vertex 16.141 17.641 5
      vertex 17.141 17.141 5
      vertex 16.141 17.641 0
    endloop
  endfacet
  facet normal 0.447214 0.894427 0
    outer loop
      vertex 16.141 17.641 0
      vertex 17.141 17.141 5
      vertex 17.141 17.141 0
    endloop
  endfacet
  facet normal 0.447214 0.894427 0
    outer loop
      vertex 15.641 17.891 5
      vertex 16.141 17.641 5
      vertex 15.641 17.891 0
    endloop
  endfacet
  facet normal 0.447214 0.894427 0
    outer loop
      vertex 15.641 17.891 0
      vertex 16.141 17.641 5
      vertex 16.141 17.641 0
    endloop
  endfacet
  facet normal 0.447214 0.894427 0
    outer loop
      vertex 15.141 18.141 5
      vertex 15.641 17.891 5
      vertex 15.141 18.141 0
    endloop
  endfacet
  facet normal 0.447214 0.894427 0
    outer loop
      vertex 15.141 18.141 0
      vertex 15.641 17.891 5
      vertex 15.641 17.891 0
    endloop
  endfacet
  facet normal -0.707107 0.707107 0
    outer loop
      vertex 13.141 16.141 5
      vertex 15.141 18.141 5
      vertex 13.141 16.141 0
    endloop
  endfacet
  facet normal -0.707107 0.707107 0
    outer loop
      vertex 13.141 16.141 0
      vertex 15.141 18.141 5
      vertex 15.141 18.141 0
    endloop
  endfacet
  facet normal -0.703166 -0.711026 0
    outer loop
      vertex 13.141 16.141 0
      vertex 15.312 13.994 0
      vertex 15.312 13.994 5
    endloop
  endfacet
  facet normal -0.703166 -0.711026 0
    outer loop
      vertex 13.141 16.141 5
      vertex 13.141 16.141 0
      vertex 15.312 13.994 5
    endloop
  endfacet
  facet normal -0.904949 -0.425521 0
    outer loop
      vertex 16.425 11.627 0
      vertex 16.425 11.627 5
      vertex 15.312 13.994 0
    endloop
  endfacet
  facet normal -0.904949 -0.425521 0
    outer loop
      vertex 15.312 13.994 0
      vertex 16.425 11.627 5
      vertex 15.312 13.994 5
    endloop
  endfacet
  facet normal -0.999938 0.0111147 0
    outer loop
      vertex 16.396 9.018 5
      vertex 16.425 11.627 5
      vertex 16.396 9.018 0
    endloop
  endfacet
  facet normal -0.999938 0.0111147 0
    outer loop
      vertex 16.396 9.018 0
      vertex 16.425 11.627 5
      vertex 16.425 11.627 0
    endloop
  endfacet
  facet normal -0.916588 0.399833 0
    outer loop
      vertex 15.141 6.141 5
      vertex 16.396 9.018 5
      vertex 15.141 6.141 0
    endloop
  endfacet
  facet normal -0.916588 0.399833 0
    outer loop
      vertex 15.141 6.141 0
      vertex 16.396 9.018 5
      vertex 16.396 9.018 0
    endloop
  endfacet
  facet normal -1 0 0
    outer loop
      vertex 15.141 1.141 5
      vertex 15.141 6.141 5
      vertex 15.141 1.141 0
    endloop
  endfacet
  facet normal -1 0 0
    outer loop
      vertex 15.141 1.141 0
      vertex 15.141 6.141 5
      vertex 15.141 6.141 0
    endloop
  endfacet
  facet normal 0 -1 0
    outer loop
      vertex 15.141 1.141 0
      vertex 17.141 1.141 0
      vertex 17.141 1.141 5
    endloop
  endfacet
  facet normal 0 -1 0
    outer loop
      vertex 15.141 1.141 5
      vertex 15.141 1.141 0
      vertex 17.141 1.141 5
    endloop
  endfacet
  facet normal 1 0 0
    outer loop
      vertex 17.141 1.141 0
      vertex 17.141 6.141 0
      vertex 17.141 6.141 5
    endloop
  endfacet
  facet normal 1 0 0
    outer loop
      vertex 17.141 1.141 5
      vertex 17.141 1.141 0
      vertex 17.141 6.141 5
    endloop
  endfacet
  facet normal -0.233335 -0.972396 0
    outer loop
      vertex 17.141 6.141 0
      vertex 18.112 5.908 0
      vertex 18.112 5.908 5
    endloop
  endfacet
  facet normal -0.233335 -0.972396 0
    outer loop
      vertex 17.141 6.141 5
      vertex 17.141 6.141 0
      vertex 18.112 5.908 5
    endloop
  endfacet
  facet normal -0.263563 -0.964642 0
    outer loop
      vertex 18.112 5.908 0
      vertex 19.21 5.608 0
      vertex 19.21 5.608 5
    endloop
  endfacet
  facet normal -0.263563 -0.964642 0
    outer loop
      vertex 18.112 5.908 5
      vertex 18.112 5.908 0
      vertex 19.21 5.608 5
    endloop
  endfacet
  facet normal -0.257267 -0.96634 0
    outer loop
      vertex 19.21 5.608 0
      vertex 20.273 5.325 0
      vertex 20.273 5.325 5
    endloop
  endfacet
  facet normal -0.257267 -0.96634 0
    outer loop
      vertex 19.21 5.608 5
      vertex 19.21 5.608 0
      vertex 20.273 5.325 5
    endloop
  endfacet
  facet normal -0.207373 -0.978262 0
    outer loop
      vertex 20.273 5.325 0
      vertex 21.141 5.141 0
      vertex 21.141 5.141 5
    endloop
  endfacet
  facet normal -0.207373 -0.978262 0
    outer loop
      vertex 20.273 5.325 5
      vertex 20.273 5.325 0
      vertex 21.141 5.141 5
    endloop
  endfacet
  facet normal -1 0 0
    outer loop
      vertex 21.141 0.141 5
      vertex 21.141 5.141 5
      vertex 21.141 0.141 0
    endloop
  endfacet
  facet normal -1 0 0
    outer loop
      vertex 21.141 0.141 0
      vertex 21.141 5.141 5
      vertex 21.141 5.141 0
    endloop
  endfacet
  facet normal 0 -1 0
    outer loop
      vertex 21.141 0.141 0
      vertex 23.141 0.141 0
      vertex 23.141 0.141 5
    endloop
  endfacet
  facet normal 0 -1 0
    outer loop
      vertex 21.141 0.141 5
      vertex 21.141 0.141 0
      vertex 23.141 0.141 5
    endloop
  endfacet
  facet normal 1 0 0
    outer loop
      vertex 23.141 0.141 0
      vertex 23.141 5.141 0
      vertex 23.141 5.141 5
    endloop
  endfacet
  facet normal 1 0 0
    outer loop
      vertex 23.141 0.141 5
      vertex 23.141 0.141 0
      vertex 23.141 5.141 5
    endloop
  endfacet
  facet normal -0.0853205 -0.996354 0
    outer loop
      vertex 23.141 5.141 0
      vertex 24.192 5.051 0
      vertex 24.192 5.051 5
    endloop
  endfacet
  facet normal -0.0853205 -0.996354 0
    outer loop
      vertex 23.141 5.141 5
      vertex 23.141 5.141 0
      vertex 24.192 5.051 5
    endloop
  endfacet
  facet normal -0.0824629 -0.996594 0
    outer loop
      vertex 24.192 5.051 0
      vertex 25.183 4.969 0
      vertex 25.183 4.969 5
    endloop
  endfacet
  facet normal -0.0824629 -0.996594 0
    outer loop
      vertex 24.192 5.051 5
      vertex 24.192 5.051 0
      vertex 25.183 4.969 5
    endloop
  endfacet
  facet normal -0.00822172 -0.999966 0
    outer loop
      vertex 25.183 4.969 0
      vertex 26.156 4.961 0
      vertex 26.156 4.961 5
    endloop
  endfacet
  facet normal -0.00822172 -0.999966 0
    outer loop
      vertex 25.183 4.969 5
      vertex 25.183 4.969 0
      vertex 26.156 4.961 5
    endloop
  endfacet
  facet normal 0.13249 -0.991184 0
    outer loop
      vertex 26.156 4.961 0
      vertex 27.151 5.094 0
      vertex 27.151 5.094 5
    endloop
  endfacet
  facet normal 0.13249 -0.991184 0
    outer loop
      vertex 26.156 4.961 5
      vertex 26.156 4.961 0
      vertex 27.151 5.094 5
    endloop
  endfacet
  facet normal -0.893159 -0.44974 0
    outer loop
      vertex 27.649 4.105 0
      vertex 27.649 4.105 5
      vertex 27.151 5.094 0
    endloop
  endfacet
  facet normal -0.893159 -0.44974 0
    outer loop
      vertex 27.151 5.094 0
      vertex 27.649 4.105 5
      vertex 27.151 5.094 5
    endloop
  endfacet
  facet normal -0.89334 -0.449382 0
    outer loop
      vertex 28.146 3.117 0
      vertex 28.146 3.117 5
      vertex 27.649 4.105 0
    endloop
  endfacet
  facet normal -0.89334 -0.449382 0
    outer loop
      vertex 27.649 4.105 0
      vertex 28.146 3.117 5
      vertex 27.649 4.105 5
    endloop
  endfacet
  facet normal -0.892976 -0.450103 0
    outer loop
      vertex 28.644 2.129 0
      vertex 28.644 2.129 5
      vertex 28.146 3.117 0
    endloop
  endfacet
  facet normal -0.892976 -0.450103 0
    outer loop
      vertex 28.146 3.117 0
      vertex 28.644 2.129 5
      vertex 28.146 3.117 5
    endloop
  endfacet
  facet normal -0.89334 -0.449382 0
    outer loop
      vertex 29.141 1.141 0
      vertex 29.141 1.141 5
      vertex 28.644 2.129 0
    endloop
  endfacet
  facet normal -0.89334 -0.449382 0
    outer loop
      vertex 28.644 2.129 0
      vertex 29.141 1.141 5
      vertex 28.644 2.129 5
    endloop
  endfacet
  facet normal 0.447214 -0.894427 0
    outer loop
      vertex 29.141 1.141 0
      vertex 31.141 2.141 0
      vertex 31.141 2.141 5
    endloop
  endfacet
  facet normal 0.447214 -0.894427 0
    outer loop
      vertex 29.141 1.141 5
      vertex 29.141 1.141 0
      vertex 31.141 2.141 5
    endloop
  endfacet
  facet normal 0.894427 0.447214 0
    outer loop
      vertex 29.141 6.141 0
      vertex 29.141 6.141 5
      vertex 31.141 2.141 5
    endloop
  endfacet
  facet normal 0.894427 0.447214 0
    outer loop
      vertex 31.141 2.141 0
      vertex 29.141 6.141 0
      vertex 31.141 2.141 5
    endloop
  endfacet
  facet normal 0.364219 -0.931313 0
    outer loop
      vertex 29.141 6.141 0
      vertex 29.724 6.369 0
      vertex 29.724 6.369 5
    endloop
  endfacet
  facet normal 0.364219 -0.931313 0
    outer loop
      vertex 29.141 6.141 5
      vertex 29.141 6.141 0
      vertex 29.724 6.369 5
    endloop
  endfacet
  facet normal 0.339774 -0.940507 0
    outer loop
      vertex 29.724 6.369 0
      vertex 30.261 6.563 0
      vertex 30.261 6.563 5
    endloop
  endfacet
  facet normal 0.339774 -0.940507 0
    outer loop
      vertex 29.724 6.369 5
      vertex 29.724 6.369 0
      vertex 30.261 6.563 5
    endloop
  endfacet
  facet normal 0.438906 -0.898533 0
    outer loop
      vertex 30.261 6.563 0
      vertex 30.738 6.796 0
      vertex 30.738 6.796 5
    endloop
  endfacet
  facet normal 0.438906 -0.898533 0
    outer loop
      vertex 30.261 6.563 5
      vertex 30.261 6.563 0
      vertex 30.738 6.796 5
    endloop
  endfacet
  facet normal 0.650326 -0.759656 0
    outer loop
      vertex 30.738 6.796 0
      vertex 31.141 7.141 0
      vertex 31.141 7.141 5
    endloop
  endfacet
  facet normal 0.650326 -0.759656 0
    outer loop
      vertex 30.738 6.796 5
      vertex 30.738 6.796 0
      vertex 31.141 7.141 5
    endloop
  endfacet
  facet normal 0.954959 -0.296739 0
    outer loop
      vertex 31.141 7.141 0
      vertex 31.856 9.442 0
      vertex 31.856 9.442 5
    endloop
  endfacet
  facet normal 0.954959 -0.296739 0
    outer loop
      vertex 31.141 7.141 5
      vertex 31.141 7.141 0
      vertex 31.856 9.442 5
    endloop
  endfacet
  facet normal 0.999968 -0.00800935 0
    outer loop
      vertex 31.856 9.442 0
      vertex 31.876 11.939 0
      vertex 31.876 11.939 5
    endloop
  endfacet
  facet normal 0.999968 -0.00800935 0
    outer loop
      vertex 31.856 9.442 5
      vertex 31.856 9.442 0
      vertex 31.876 11.939 5
    endloop
  endfacet
  facet normal 0.950605 0.310402 0
    outer loop
      vertex 31.028 14.536 0
      vertex 31.028 14.536 5
      vertex 31.876 11.939 5
    endloop
  endfacet
  facet normal 0.950605 0.310402 0
    outer loop
      vertex 31.876 11.939 0
      vertex 31.028 14.536 0
      vertex 31.876 11.939 5
    endloop
  endfacet
  facet normal 0.80985 0.586636 0
    outer loop
      vertex 29.141 17.141 0
      vertex 29.141 17.141 5
      vertex 31.028 14.536 5
    endloop
  endfacet
  facet normal 0.80985 0.586636 0
    outer loop
      vertex 31.028 14.536 0
      vertex 29.141 17.141 0
      vertex 31.028 14.536 5
    endloop
  endfacet
  facet normal 0.724178 0.689613 0
    outer loop
      vertex 27.086 19.299 0
      vertex 27.086 19.299 5
      vertex 29.141 17.141 5
    endloop
  endfacet
  facet normal 0.724178 0.689613 0
    outer loop
      vertex 29.141 17.141 0
      vertex 27.086 19.299 0
      vertex 29.141 17.141 5
    endloop
  endfacet
  facet normal 0.484261 0.874924 0
    outer loop
      vertex 22.085 22.067 5
      vertex 27.086 19.299 5
      vertex 22.085 22.067 0
    endloop
  endfacet
  facet normal 0.484261 0.874924 0
    outer loop
      vertex 22.085 22.067 0
      vertex 27.086 19.299 5
      vertex 27.086 19.299 0
    endloop
  endfacet
  facet normal 0.114684 0.993402 0
    outer loop
      vertex 15.112 22.872 5
      vertex 22.085 22.067 5
      vertex 15.112 22.872 0
    endloop
  endfacet
  facet normal 0.114684 0.993402 0
    outer loop
      vertex 15.112 22.872 0
      vertex 22.085 22.067 5
      vertex 22.085 22.067 0
    endloop
  endfacet
  facet normal -0.42393 0.905695 0
    outer loop
      vertex 7.141 19.141 5
      vertex 15.112 22.872 5
      vertex 7.141 19.141 0
    endloop
  endfacet
  facet normal -0.42393 0.905695 0
    outer loop
      vertex 7.141 19.141 0
      vertex 15.112 22.872 5
      vertex 15.112 22.872 0
    endloop
  endfacet
  facet normal 0.630238 0.776402 0
    outer loop
      vertex 6.647 19.542 5
      vertex 7.141 19.141 5
      vertex 6.647 19.542 0
    endloop
  endfacet
  facet normal 0.630238 0.776402 0
    outer loop
      vertex 6.647 19.542 0
      vertex 7.141 19.141 5
      vertex 7.141 19.141 0
    endloop
  endfacet
  facet normal 0.997296 0.0734947 0
    outer loop
      vertex 8.036 10.142 0
      vertex 8.036 10.142 5
      vertex 8.115 9.07 5
    endloop
  endfacet
  facet normal 0.997296 0.0734947 0
    outer loop
      vertex 8.115 9.07 0
      vertex 8.036 10.142 0
      vertex 8.115 9.07 5
    endloop
  endfacet
  facet normal 0.998178 -0.0603337 0
    outer loop
      vertex 8.036 10.142 0
      vertex 8.115 11.449 0
      vertex 8.115 11.449 5
    endloop
  endfacet
  facet normal 0.998178 -0.0603337 0
    outer loop
      vertex 8.036 10.142 5
      vertex 8.036 10.142 0
      vertex 8.115 11.449 5
    endloop
  endfacet
  facet normal 0.986332 -0.16477 0
    outer loop
      vertex 8.115 11.449 0
      vertex 8.331 12.742 0
      vertex 8.331 12.742 5
    endloop
  endfacet
  facet normal 0.986332 -0.16477 0
    outer loop
      vertex 8.115 11.449 5
      vertex 8.115 11.449 0
      vertex 8.331 12.742 5
    endloop
  endfacet
  facet normal 0.962512 -0.271238 0
    outer loop
      vertex 8.331 12.742 0
      vertex 8.65 13.874 0
      vertex 8.65 13.874 5
    endloop
  endfacet
  facet normal 0.962512 -0.271238 0
    outer loop
      vertex 8.331 12.742 5
      vertex 8.331 12.742 0
      vertex 8.65 13.874 5
    endloop
  endfacet
  facet normal 0.903246 -0.429124 0
    outer loop
      vertex 8.65 13.874 0
      vertex 9.041 14.697 0
      vertex 9.041 14.697 5
    endloop
  endfacet
  facet normal 0.903246 -0.429124 0
    outer loop
      vertex 8.65 13.874 5
      vertex 8.65 13.874 0
      vertex 9.041 14.697 5
    endloop
  endfacet
  facet normal 0.660541 -0.75079 0
    outer loop
      vertex 9.041 14.697 0
      vertex 9.432 15.041 0
      vertex 9.432 15.041 5
    endloop
  endfacet
  facet normal 0.660541 -0.75079 0
    outer loop
      vertex 9.041 14.697 5
      vertex 9.041 14.697 0
      vertex 9.432 15.041 5
    endloop
  endfacet
  facet normal -0.488188 -0.872738 0
    outer loop
      vertex 9.432 15.041 0
      vertex 9.752 14.862 0
      vertex 9.752 14.862 5
    endloop
  endfacet
  facet normal -0.488188 -0.872738 0
    outer loop
      vertex 9.432 15.041 5
      vertex 9.432 15.041 0
      vertex 9.752 14.862 5
    endloop
  endfacet
  facet normal -0.949411 -0.314036 0
    outer loop
      vertex 9.967 14.212 0
      vertex 9.967 14.212 5
      vertex 9.752 14.862 0
    endloop
  endfacet
  facet normal -0.949411 -0.314036 0
    outer loop
      vertex 9.752 14.862 0
      vertex 9.967 14.212 5
      vertex 9.752 14.862 5
    endloop
  endfacet
  facet normal -0.997296 -0.0734947 0
    outer loop
      vertex 10.046 13.14 0
      vertex 10.046 13.14 5
      vertex 9.967 14.212 0
    endloop
  endfacet
  facet normal -0.997296 -0.0734947 0
    outer loop
      vertex 9.967 14.212 0
      vertex 10.046 13.14 5
      vertex 9.967 14.212 5
    endloop
  endfacet
  facet normal -0.998178 0.0603337 0
    outer loop
      vertex 9.967 11.833 5
      vertex 10.046 13.14 5
      vertex 9.967 11.833 0
    endloop
  endfacet
  facet normal -0.998178 0.0603337 0
    outer loop
      vertex 9.967 11.833 0
      vertex 10.046 13.14 5
      vertex 10.046 13.14 0
    endloop
  endfacet
  facet normal -0.986456 0.164028 0
    outer loop
      vertex 9.752 10.54 5
      vertex 9.967 11.833 5
      vertex 9.752 10.54 0
    endloop
  endfacet
  facet normal -0.986456 0.164028 0
    outer loop
      vertex 9.752 10.54 0
      vertex 9.967 11.833 5
      vertex 9.967 11.833 0
    endloop
  endfacet
  facet normal -0.96229 0.272025 0
    outer loop
      vertex 9.432 9.408 5
      vertex 9.752 10.54 5
      vertex 9.432 9.408 0
    endloop
  endfacet
  facet normal -0.96229 0.272025 0
    outer loop
      vertex 9.432 9.408 0
      vertex 9.752 10.54 5
      vertex 9.752 10.54 0
    endloop
  endfacet
  facet normal -0.903246 0.429124 0
    outer loop
      vertex 9.041 8.585 5
      vertex 9.432 9.408 5
      vertex 9.041 8.585 0
    endloop
  endfacet
  facet normal -0.903246 0.429124 0
    outer loop
      vertex 9.041 8.585 0
      vertex 9.432 9.408 5
      vertex 9.432 9.408 0
    endloop
  endfacet
  facet normal -0.660541 0.75079 0
    outer loop
      vertex 8.65 8.241 5
      vertex 9.041 8.585 5
      vertex 8.65 8.241 0
    endloop
  endfacet
  facet normal -0.660541 0.75079 0
    outer loop
      vertex 8.65 8.241 0
      vertex 9.041 8.585 5
      vertex 9.041 8.585 0
    endloop
  endfacet
  facet normal 0.489352 0.872086 0
    outer loop
      vertex 8.331 8.42 5
      vertex 8.65 8.241 5
      vertex 8.331 8.42 0
    endloop
  endfacet
  facet normal 0.489352 0.872086 0
    outer loop
      vertex 8.331 8.42 0
      vertex 8.65 8.241 5
      vertex 8.65 8.241 0
    endloop
  endfacet
  facet normal 0.948975 0.315352 0
    outer loop
      vertex 8.115 9.07 0
      vertex 8.115 9.07 5
      vertex 8.331 8.42 5
    endloop
  endfacet
  facet normal 0.948975 0.315352 0
    outer loop
      vertex 8.331 8.42 0
      vertex 8.115 9.07 0
      vertex 8.331 8.42 5
    endloop
  endfacet
  facet normal 0.997179 0.0750565 0
    outer loop
      vertex 4.215 10.937 0
      vertex 4.215 10.937 5
      vertex 4.292 9.914 5
    endloop
  endfacet
  facet normal 0.997179 0.0750565 0
    outer loop
      vertex 4.292 9.914 0
      vertex 4.215 10.937 0
      vertex 4.292 9.914 5
    endloop
  endfacet
  facet normal 0.998223 -0.0595839 0
    outer loop
      vertex 4.215 10.937 0
      vertex 4.292 12.227 0
      vertex 4.292 12.227 5
    endloop
  endfacet
  facet normal 0.998223 -0.0595839 0
    outer loop
      vertex 4.215 10.937 5
      vertex 4.215 10.937 0
      vertex 4.292 12.227 5
    endloop
  endfacet
  facet normal 0.987511 -0.157549 0
    outer loop
      vertex 4.292 12.227 0
      vertex 4.501 13.537 0
      vertex 4.501 13.537 5
    endloop
  endfacet
  facet normal 0.987511 -0.157549 0
    outer loop
      vertex 4.292 12.227 5
      vertex 4.292 12.227 0
      vertex 4.501 13.537 5
    endloop
  endfacet
  facet normal 0.967075 -0.254493 0
    outer loop
      vertex 4.501 13.537 0
      vertex 4.811 14.715 0
      vertex 4.811 14.715 5
    endloop
  endfacet
  facet normal 0.967075 -0.254493 0
    outer loop
      vertex 4.501 13.537 5
      vertex 4.501 13.537 0
      vertex 4.811 14.715 5
    endloop
  endfacet
  facet normal 0.920783 -0.390075 0
    outer loop
      vertex 4.811 14.715 0
      vertex 5.191 15.612 0
      vertex 5.191 15.612 5
    endloop
  endfacet
  facet normal 0.920783 -0.390075 0
    outer loop
      vertex 4.811 14.715 5
      vertex 4.811 14.715 0
      vertex 5.191 15.612 5
    endloop
  endfacet
  facet normal 0.749329 -0.662198 0
    outer loop
      vertex 5.191 15.612 0
      vertex 5.571 16.042 0
      vertex 5.571 16.042 5
    endloop
  endfacet
  facet normal 0.749329 -0.662198 0
    outer loop
      vertex 5.191 15.612 5
      vertex 5.191 15.612 0
      vertex 5.571 16.042 5
    endloop
  endfacet
  facet normal -0.293002 -0.956112 0
    outer loop
      vertex 5.571 16.042 0
      vertex 5.881 15.947 0
      vertex 5.881 15.947 5
    endloop
  endfacet
  facet normal -0.293002 -0.956112 0
    outer loop
      vertex 5.571 16.042 5
      vertex 5.571 16.042 0
      vertex 5.881 15.947 5
    endloop
  endfacet
  facet normal -0.940597 -0.339525 0
    outer loop
      vertex 6.09 15.368 0
      vertex 6.09 15.368 5
      vertex 5.881 15.947 0
    endloop
  endfacet
  facet normal -0.940597 -0.339525 0
    outer loop
      vertex 5.881 15.947 0
      vertex 6.09 15.368 5
      vertex 5.881 15.947 5
    endloop
  endfacet
  facet normal -0.997174 -0.0751295 0
    outer loop
      vertex 6.167 14.346 0
      vertex 6.167 14.346 5
      vertex 6.09 15.368 0
    endloop
  endfacet
  facet normal -0.997174 -0.0751295 0
    outer loop
      vertex 6.09 15.368 0
      vertex 6.167 14.346 5
      vertex 6.09 15.368 5
    endloop
  endfacet
  facet normal -0.998226 0.0595379 0
    outer loop
      vertex 6.09 13.055 5
      vertex 6.167 14.346 5
      vertex 6.09 13.055 0
    endloop
  endfacet
  facet normal -0.998226 0.0595379 0
    outer loop
      vertex 6.09 13.055 0
      vertex 6.167 14.346 5
      vertex 6.167 14.346 0
    endloop
  endfacet
  facet normal -0.987492 0.157667 0
    outer loop
      vertex 5.881 11.746 5
      vertex 6.09 13.055 5
      vertex 5.881 11.746 0
    endloop
  endfacet
  facet normal -0.987492 0.157667 0
    outer loop
      vertex 5.881 11.746 0
      vertex 6.09 13.055 5
      vertex 6.09 13.055 0
    endloop
  endfacet
  facet normal -0.967128 0.254291 0
    outer loop
      vertex 5.571 10.567 5
      vertex 5.881 11.746 5
      vertex 5.571 10.567 0
    endloop
  endfacet
  facet normal -0.967128 0.254291 0
    outer loop
      vertex 5.571 10.567 0
      vertex 5.881 11.746 5
      vertex 5.881 11.746 0
    endloop
  endfacet
  facet normal -0.920783 0.390075 0
    outer loop
      vertex 5.191 9.67 5
      vertex 5.571 10.567 5
      vertex 5.191 9.67 0
    endloop
  endfacet
  facet normal -0.920783 0.390075 0
    outer loop
      vertex 5.191 9.67 0
      vertex 5.571 10.567 5
      vertex 5.571 10.567 0
    endloop
  endfacet
  facet normal -0.749329 0.662198 0
    outer loop
      vertex 4.811 9.24 5
      vertex 5.191 9.67 5
      vertex 4.811 9.24 0
    endloop
  endfacet
  facet normal -0.749329 0.662198 0
    outer loop
      vertex 4.811 9.24 0
      vertex 5.191 9.67 5
      vertex 5.191 9.67 0
    endloop
  endfacet
  facet normal 0.293002 0.956112 0
    outer loop
      vertex 4.501 9.335 5
      vertex 4.811 9.24 5
      vertex 4.501 9.335 0
    endloop
  endfacet
  facet normal 0.293002 0.956112 0
    outer loop
      vertex 4.501 9.335 0
      vertex 4.811 9.24 5
      vertex 4.811 9.24 0
    endloop
  endfacet
  facet normal 0.940597 0.339525 0
    outer loop
      vertex 4.292 9.914 0
      vertex 4.292 9.914 5
      vertex 4.501 9.335 5
    endloop
  endfacet
  facet normal 0.940597 0.339525 0
    outer loop
      vertex 4.501 9.335 0
      vertex 4.292 9.914 0
      vertex 4.501 9.335 5
    endloop
  endfacet
endsolid OpenSCAD_Model
