  0
SECTION
  2
HEADER
  9
$ACADVER
  1
AC1014
  9
$HANDSEED
  5
FFFF
  9
$MEASUREMENT
 70
     1
  0
ENDSEC
  0
SECTION
  2
TABLES
  0
TABLE
  2
VPORT
  5
8
330
0
100
AcDbSymbolTable
 70
     4
  0
VPORT
  5
2E
330
8
100
AcDbSymbolTableRecord
100
AcDbViewportTableRecord
  2
*ACTIVE
 70
     0
 10
0.0
 20
0.0
 11
1.0
 21
1.0
 12
210.0
 22
148.5
 13
0.0
 23
0.0
 14
10.0
 24
10.0
 15
10.0
 25
10.0
 16
0.0
 26
0.0
 36
1.0
 17
0.0
 27
0.0
 37
0.0
 40
341.0
 41
1.24
 42
50.0
 43
0.0
 44
0.0
 50
0.0
 51
0.0
 71
     0
 72
   100
 73
     1
 74
     3
 75
     0
 76
     0
 77
     0
 78
     0
  0
ENDTAB
  0
TABLE
  2
LTYPE
  5
5
330
0
100
AcDbSymbolTable
 70
     1
  0
LTYPE
  5
14
330
5
100
AcDbSymbolTableRecord
100
AcDbLinetypeTableRecord
  2
BYBLOCK
 70
     0
  3

 72
    65
 73
     0
 40
0.0
  0
LTYPE
  5
15
330
5
100
AcDbSymbolTableRecord
100
AcDbLinetypeTableRecord
  2
BYLAYER
 70
     0
  3

 72
    65
 73
     0
 40
0.0
  0
LTYPE
  5
16
330
5
100
AcDbSymbolTableRecord
100
AcDbLinetypeTableRecord
  2
CONTINUOUS
 70
     0
  3
Solid line
 72
    65
 73
     0
 40
0.0
  0
ENDTAB
  0
TABLE
  2
LAYER
  5
2
100
AcDbSymbolTable
 70
2
  0
LAYER
  5
50
100
AcDbSymbolTableRecord
100
AcDbLayerTableRecord
  2
0
 70
0
  6
CONTINUOUS
  0
LAYER
  5
51
100
AcDbSymbolTableRecord
100
AcDbLayerTableRecord
  2
Layer_1
 70
0
  6
CONTINUOUS
  0
ENDTAB
  0
TABLE
  2
STYLE
  5
3
330
0
100
AcDbSymbolTable
 70
     1
  0
STYLE
  5
11
330
3
100
AcDbSymbolTableRecord
100
AcDbTextStyleTableRecord
  2
STANDARD
 70
     0
 40
0.0
 41
1.0
 50
0.0
 71
     0
 42
2.5
  3
txt
  4

  0
ENDTAB
  0
TABLE
  2
VIEW
  5
6
330
0
100
AcDbSymbolTable
 70
     0
  0
ENDTAB
  0
TABLE
  2
UCS
  5
7
330
0
100
AcDbSymbolTable
 70
     0
  0
ENDTAB
  0
TABLE
  2
APPID
  5
9
330
0
100
AcDbSymbolTable
 70
     2
  0
APPID
  5
12
330
9
100
AcDbSymbolTableRecord
100
AcDbRegAppTableRecord
  2
ACAD
 70
     0
  0
ENDTAB
  0
TABLE
  2
DIMSTYLE
  5
A
330
0
100
AcDbSymbolTable
 70
     1
  0
DIMSTYLE
105
27
330
A
100
AcDbSymbolTableRecord
100
AcDbDimStyleTableRecord
  2
ISO-25
 70
     0
  3

  4

  5

  6

  7

 40
1.0
 41
2.5
 42
0.625
 43
3.75
 44
1.25
 45
0.0
 46
0.0
 47
0.0
 48
0.0
140
2.5
141
2.5
142
0.0
143
0.03937007874016
144
1.0
145
0.0
146
1.0
147
0.625
 71
     0
 72
     0
 73
     0
 74
     0
 75
     0
 76
     0
 77
     1
 78
     8
170
     0
171
     3
172
     1
173
     0
174
     0
175
     0
176
     0
177
     0
178
     0
270
     2
271
     2
272
     2
273
     2
274
     3
340
11
275
     0
280
     0
281
     0
282
     0
283
     0
284
     8
285
     0
286
     0
287
     3
288
     0
  0
ENDTAB
  0
TABLE
  2
BLOCK_RECORD
  5
1
330
0
100
AcDbSymbolTable
 70
     1
  0
BLOCK_RECORD
  5
1F
330
1
100
AcDbSymbolTableRecord
100
AcDbBlockTableRecord
  2
*MODEL_SPACE
  0
BLOCK_RECORD
  5
1B
330
1
100
AcDbSymbolTableRecord
100
AcDbBlockTableRecord
  2
*PAPER_SPACE
  0
ENDTAB
  0
ENDSEC
  0
SECTION
  2
BLOCKS
  0
BLOCK
  5
20
330
1F
100
AcDbEntity
  8
0
100
AcDbBlockBegin
  2
*MODEL_SPACE
 70
     0
 10
0.0
 20
0.0
 30
0.0
  3
*MODEL_SPACE
  1

  0
ENDBLK
  5
21
330
1F
100
AcDbEntity
  8
0
100
AcDbBlockEnd
  0
BLOCK
  5
1C
330
1B
100
AcDbEntity
 67
     1
  8
0
100
AcDbBlockBegin
  2
*PAPER_SPACE
  1

  0
ENDBLK
  5
1D
330
1B
100
AcDbEntity
 67
     1
  8
0
100
AcDbBlockEnd
  0
ENDSEC
  0
SECTION
  2
ENTITIES
  0
SPLINE
  5
100
100
AcDbEntity
  8
Layer_1
 62
7
100
AcDbSpline
 70
8
 71
3
 72
8
 73
4
 74
0
 40
0
 40
0
 40
0
 40
0
 40
1
 40
1
 40
1
 40
1
 10
31.141111
 20
7.141126
 30
0.0
 10
31.811307
 20
8.589575
 30
0.0
 10
32.132812
 20
10.230274
 30
0.0
 10
31.876012
 20
11.938509
 30
0.0
  0
SPLINE
  5
101
100
AcDbEntity
  8
Layer_1
 62
7
100
AcDbSpline
 70
8
 71
3
 72
8
 73
4
 74
0
 40
0
 40
0
 40
0
 40
0
 40
1
 40
1
 40
1
 40
1
 10
31.876012
 20
11.938509
 30
0.0
 10
31.619215
 20
13.646743
 30
0.0
 10
30.784117
 20
15.422525
 30
0.0
 10
29.141110
 20
17.141115
 30
0.0
  0
SPLINE
  5
102
100
AcDbEntity
  8
Layer_1
 62
7
100
AcDbSpline
 70
8
 71
3
 72
8
 73
4
 74
0
 40
0
 40
0
 40
0
 40
0
 40
1
 40
1
 40
1
 40
1
 10
29.141110
 20
17.141115
 30
0.0
 10
28.969724
 20
17.804252
 30
0.0
 10
26.184668
 20
20.590096
 30
0.0
 10
22.084987
 20
22.067236
 30
0.0
  0
SPLINE
  5
103
100
AcDbEntity
  8
Layer_1
 62
7
100
AcDbSpline
 70
8
 71
3
 72
8
 73
4
 74
0
 40
0
 40
0
 40
0
 40
0
 40
1
 40
1
 40
1
 40
1
 10
22.084987
 20
22.067236
 30
0.0
 10
17.985305
 20
23.544373
 30
0.0
 10
12.570999
 20
23.712806
 30
0.0
 10
7.141111
 20
19.141116
 30
0.0
  0
SPLINE
  5
104
100
AcDbEntity
  8
Layer_1
 62
7
100
AcDbSpline
 70
8
 71
3
 72
8
 73
4
 74
0
 40
0
 40
0
 40
0
 40
0
 40
1
 40
1
 40
1
 40
1
 10
7.141111
 20
19.141116
 30
0.0
 10
6.843497
 20
19.400628
 30
0.0
 10
6.467625
 20
19.696174
 30
0.0
 10
6.104091
 20
19.904070
 30
0.0
  0
SPLINE
  5
105
100
AcDbEntity
  8
Layer_1
 62
7
100
AcDbSpline
 70
8
 71
3
 72
8
 73
4
 74
0
 40
0
 40
0
 40
0
 40
0
 40
1
 40
1
 40
1
 40
1
 10
6.104091
 20
19.904070
 30
0.0
 10
5.740561
 20
20.111966
 30
0.0
 10
5.389369
 20
20.232210
 30
0.0
 10
5.141110
 20
20.141117
 30
0.0
  0
SPLINE
  5
106
100
AcDbEntity
  8
Layer_1
 62
7
100
AcDbSpline
 70
8
 71
3
 72
8
 73
4
 74
0
 40
0
 40
0
 40
0
 40
0
 40
1
 40
1
 40
1
 40
1
 10
4.141109
 20
19.141116
 30
0.0
 10
3.237109
 20
18.158726
 30
0.0
 10
2.701101
 20
16.132811
 30
0.0
 10
2.409094
 20
13.990462
 30
0.0
  0
SPLINE
  5
107
100
AcDbEntity
  8
Layer_1
 62
7
100
AcDbSpline
 70
8
 71
3
 72
8
 73
4
 74
0
 40
0
 40
0
 40
0
 40
0
 40
1
 40
1
 40
1
 40
1
 10
2.409094
 20
13.990462
 30
0.0
 10
2.117090
 20
11.848085
 30
0.0
 10
2.069092
 20
9.589291
 30
0.0
 10
2.141110
 20
8.141124
 30
0.0
  0
SPLINE
  5
108
100
AcDbEntity
  8
Layer_1
 62
7
100
AcDbSpline
 70
8
 71
3
 72
8
 73
4
 74
0
 40
0
 40
0
 40
0
 40
0
 40
1
 40
1
 40
1
 40
1
 10
2.141110
 20
8.141124
 30
0.0
 10
3.269810
 20
7.624121
 30
0.0
 10
3.893182
 20
7.195792
 30
0.0
 10
4.547695
 20
6.860879
 30
0.0
  0
SPLINE
  5
109
100
AcDbEntity
  8
Layer_1
 62
7
100
AcDbSpline
 70
8
 71
3
 72
8
 73
4
 74
0
 40
0
 40
0
 40
0
 40
0
 40
1
 40
1
 40
1
 40
1
 10
4.547695
 20
6.860879
 30
0.0
 10
5.202208
 20
6.525966
 30
0.0
 10
5.887861
 20
6.284440
 30
0.0
 10
7.141111
 20
6.141128
 30
0.0
  0
LWPOLYLINE
  5
10a
100
AcDbEntity
  8
Layer_1
 62
7
100
AcDbPolyline
 90
11
 70
0
 10
5.141110
 20
20.141117
 30
0.0
 10
4.641111
 20
21.641117
 30
0.0
 10
4.141109
 20
23.141117
 30
0.0
 10
2.141110
 20
22.641118
 30
0.0
 10
0.141111
 20
22.141116
 30
0.0
 10
0.641110
 20
21.141115
 30
0.0
 10
1.141109
 20
20.141117
 30
0.0
 10
2.141110
 20
20.641116
 30
0.0
 10
3.141111
 20
21.141115
 30
0.0
 10
3.641110
 20
20.141114
 30
0.0
 10
4.141109
 20
19.141116
 30
0.0
  0
SPLINE
  5
10b
100
AcDbEntity
  8
Layer_1
 62
7
100
AcDbSpline
 70
8
 71
3
 72
8
 73
4
 74
0
 40
0
 40
0
 40
0
 40
0
 40
1
 40
1
 40
1
 40
1
 10
9.141110
 20
6.141128
 30
0.0
 10
9.921446
 20
6.051861
 30
0.0
 10
10.743850
 20
5.984212
 30
0.0
 10
11.584968
 20
5.972698
 30
0.0
  0
SPLINE
  5
10c
100
AcDbEntity
  8
Layer_1
 62
7
100
AcDbSpline
 70
8
 71
3
 72
8
 73
4
 74
0
 40
0
 40
0
 40
0
 40
0
 40
1
 40
1
 40
1
 40
1
 10
11.584968
 20
5.972698
 30
0.0
 10
12.426089
 20
5.961127
 30
0.0
 10
13.285922
 20
6.005802
 30
0.0
 10
14.141109
 20
6.141128
 30
0.0
  0
SPLINE
  5
10d
100
AcDbEntity
  8
Layer_1
 62
7
100
AcDbSpline
 70
8
 71
3
 72
8
 73
4
 74
0
 40
0
 40
0
 40
0
 40
0
 40
1
 40
1
 40
1
 40
1
 10
14.141109
 20
6.141128
 30
0.0
 10
16.026940
 20
8.863641
 30
0.0
 10
15.794756
 20
11.259426
 30
0.0
 10
14.457206
 20
13.276665
 30
0.0
  0
SPLINE
  5
10e
100
AcDbEntity
  8
Layer_1
 62
7
100
AcDbSpline
 70
8
 71
3
 72
8
 73
4
 74
0
 40
0
 40
0
 40
0
 40
0
 40
1
 40
1
 40
1
 40
1
 10
14.457206
 20
13.276665
 30
0.0
 10
13.119656
 20
15.293922
 30
0.0
 10
10.676740
 20
16.932654
 30
0.0
 10
8.141109
 20
18.141115
 30
0.0
  0
SPLINE
  5
10f
100
AcDbEntity
  8
Layer_1
 62
7
100
AcDbSpline
 70
8
 71
3
 72
8
 73
4
 74
0
 40
0
 40
0
 40
0
 40
0
 40
1
 40
1
 40
1
 40
1
 10
8.141109
 20
18.141115
 30
0.0
 10
8.693249
 20
18.095570
 30
0.0
 10
9.096423
 20
18.061320
 30
0.0
 10
9.534977
 20
17.930580
 30
0.0
  0
SPLINE
  5
110
100
AcDbEntity
  8
Layer_1
 62
7
100
AcDbSpline
 70
8
 71
3
 72
8
 73
4
 74
0
 40
0
 40
0
 40
0
 40
0
 40
1
 40
1
 40
1
 40
1
 10
9.534977
 20
17.930580
 30
0.0
 10
9.973530
 20
17.799841
 30
0.0
 10
10.447460
 20
17.572613
 30
0.0
 10
11.141109
 20
17.141115
 30
0.0
  0
LWPOLYLINE
  5
111
100
AcDbEntity
  8
Layer_1
 62
7
100
AcDbPolyline
 90
7
 70
0
 10
7.141111
 20
6.141128
 30
0.0
 10
7.141111
 20
4.141104
 30
0.0
 10
7.141111
 20
2.141108
 30
0.0
 10
8.141112
 20
2.141108
 30
0.0
 10
9.141110
 20
2.141108
 30
0.0
 10
9.141110
 20
4.141104
 30
0.0
 10
9.141110
 20
6.141128
 30
0.0
  0
SPLINE
  5
112
100
AcDbEntity
  8
Layer_1
 62
7
100
AcDbSpline
 70
8
 71
3
 72
8
 73
4
 74
0
 40
0
 40
0
 40
0
 40
0
 40
1
 40
1
 40
1
 40
1
 10
13.141111
 20
16.141117
 30
0.0
 10
14.921978
 20
14.777241
 30
0.0
 10
16.054251
 20
13.283241
 30
0.0
 10
16.425167
 20
11.627218
 30
0.0
  0
SPLINE
  5
113
100
AcDbEntity
  8
Layer_1
 62
7
100
AcDbSpline
 70
8
 71
3
 72
8
 73
4
 74
0
 40
0
 40
0
 40
0
 40
0
 40
1
 40
1
 40
1
 40
1
 10
16.425167
 20
11.627218
 30
0.0
 10
16.796086
 20
9.971194
 30
0.0
 10
16.405665
 20
8.153147
 30
0.0
 10
15.141109
 20
6.141128
 30
0.0
  0
LWPOLYLINE
  5
114
100
AcDbEntity
  8
Layer_1
 62
7
100
AcDbPolyline
 90
11
 70
0
 10
11.141109
 20
17.141115
 30
0.0
 10
12.641109
 20
18.141115
 30
0.0
 10
14.141109
 20
19.141116
 30
0.0
 10
16.141110
 20
19.141116
 30
0.0
 10
18.141109
 20
19.141116
 30
0.0
 10
17.641110
 20
18.141115
 30
0.0
 10
17.141111
 20
17.141115
 30
0.0
 10
16.141110
 20
17.641116
 30
0.0
 10
15.141109
 20
18.141115
 30
0.0
 10
14.141111
 20
17.141115
 30
0.0
 10
13.141111
 20
16.141117
 30
0.0
  0
SPLINE
  5
115
100
AcDbEntity
  8
Layer_1
 62
7
100
AcDbSpline
 70
8
 71
3
 72
8
 73
4
 74
0
 40
0
 40
0
 40
0
 40
0
 40
1
 40
1
 40
1
 40
1
 10
17.141108
 20
6.141128
 30
0.0
 10
17.710359
 20
6.025558
 30
0.0
 10
18.471408
 20
5.811380
 30
0.0
 10
19.209619
 20
5.608151
 30
0.0
  0
SPLINE
  5
116
100
AcDbEntity
  8
Layer_1
 62
7
100
AcDbSpline
 70
8
 71
3
 72
8
 73
4
 74
0
 40
0
 40
0
 40
0
 40
0
 40
1
 40
1
 40
1
 40
1
 10
19.209619
 20
5.608151
 30
0.0
 10
19.947831
 20
5.404951
 30
0.0
 10
20.663205
 20
5.212730
 30
0.0
 10
21.141109
 20
5.141102
 30
0.0
  0
LWPOLYLINE
  5
117
100
AcDbEntity
  8
Layer_1
 62
7
100
AcDbPolyline
 90
7
 70
0
 10
15.141109
 20
6.141128
 30
0.0
 10
15.141109
 20
3.641119
 30
0.0
 10
15.141109
 20
1.141110
 30
0.0
 10
16.141110
 20
1.141110
 30
0.0
 10
17.141111
 20
1.141110
 30
0.0
 10
17.141111
 20
3.641119
 30
0.0
 10
17.141108
 20
6.141128
 30
0.0
  0
SPLINE
  5
118
100
AcDbEntity
  8
Layer_1
 62
7
100
AcDbSpline
 70
8
 71
3
 72
8
 73
4
 74
0
 40
0
 40
0
 40
0
 40
0
 40
1
 40
1
 40
1
 40
1
 10
23.141110
 20
5.141130
 30
0.0
 10
23.870731
 20
5.092870
 30
0.0
 10
24.532872
 20
5.006002
 30
0.0
 10
25.182822
 20
4.968692
 30
0.0
  0
SPLINE
  5
119
100
AcDbEntity
  8
Layer_1
 62
7
100
AcDbSpline
 70
8
 71
3
 72
8
 73
4
 74
0
 40
0
 40
0
 40
0
 40
0
 40
1
 40
1
 40
1
 40
1
 10
25.182822
 20
4.968692
 30
0.0
 10
25.832771
 20
4.931382
 30
0.0
 10
26.470528
 20
4.943574
 30
0.0
 10
27.151386
 20
5.093660
 30
0.0
  0
LWPOLYLINE
  5
11a
100
AcDbEntity
  8
Layer_1
 62
7
100
AcDbPolyline
 90
7
 70
0
 10
21.141109
 20
5.141102
 30
0.0
 10
21.141109
 20
2.641121
 30
0.0
 10
21.141109
 20
0.141112
 30
0.0
 10
22.141109
 20
0.141112
 30
0.0
 10
23.141110
 20
0.141112
 30
0.0
 10
23.141110
 20
2.641121
 30
0.0
 10
23.141110
 20
5.141130
 30
0.0
  0
SPLINE
  5
11b
100
AcDbEntity
  8
Layer_1
 62
7
100
AcDbSpline
 70
8
 71
3
 72
8
 73
4
 74
0
 40
0
 40
0
 40
0
 40
0
 40
1
 40
1
 40
1
 40
1
 10
29.141110
 20
6.141128
 30
0.0
 10
29.542325
 20
6.320904
 30
0.0
 10
29.921821
 20
6.428995
 30
0.0
 10
30.261264
 20
6.563078
 30
0.0
  0
SPLINE
  5
11c
100
AcDbEntity
  8
Layer_1
 62
7
100
AcDbSpline
 70
8
 71
3
 72
8
 73
4
 74
0
 40
0
 40
0
 40
0
 40
0
 40
1
 40
1
 40
1
 40
1
 10
30.261264
 20
6.563078
 30
0.0
 10
30.600706
 20
6.697190
 30
0.0
 10
30.900099
 20
6.857295
 30
0.0
 10
31.141111
 20
7.141098
 30
0.0
  0
SPLINE
  5
11d
100
AcDbEntity
  8
Layer_1
 62
7
100
AcDbSpline
 70
8
 71
3
 72
8
 73
4
 74
0
 40
0
 40
0
 40
0
 40
0
 40
1
 40
1
 40
1
 40
1
 10
6.166798
 20
14.345695
 30
0.0
 10
6.166798
 20
13.525303
 30
0.0
 10
6.057590
 20
12.591797
 30
0.0
 10
5.881026
 20
11.745723
 30
0.0
  0
SPLINE
  5
11e
100
AcDbEntity
  8
Layer_1
 62
7
100
AcDbSpline
 70
8
 71
3
 72
8
 73
4
 74
0
 40
0
 40
0
 40
0
 40
0
 40
1
 40
1
 40
1
 40
1
 10
5.881026
 20
11.745723
 30
0.0
 10
5.704459
 20
10.899649
 30
0.0
 10
5.460534
 20
10.140979
 30
0.0
 10
5.191105
 20
9.670289
 30
0.0
  0
SPLINE
  5
11f
100
AcDbEntity
  8
Layer_1
 62
7
100
AcDbSpline
 70
8
 71
3
 72
8
 73
4
 74
0
 40
0
 40
0
 40
0
 40
0
 40
1
 40
1
 40
1
 40
1
 10
5.191105
 20
9.670289
 30
0.0
 10
4.921676
 20
9.199570
 30
0.0
 10
4.677754
 20
9.105957
 30
0.0
 10
4.501188
 20
9.335122
 30
0.0
  0
SPLINE
  5
120
100
AcDbEntity
  8
Layer_1
 62
7
100
AcDbSpline
 70
8
 71
3
 72
8
 73
4
 74
0
 40
0
 40
0
 40
0
 40
0
 40
1
 40
1
 40
1
 40
1
 10
4.501188
 20
9.335122
 30
0.0
 10
4.324624
 20
9.564258
 30
0.0
 10
4.215415
 20
10.116172
 30
0.0
 10
4.215415
 20
10.936563
 30
0.0
  0
SPLINE
  5
121
100
AcDbEntity
  8
Layer_1
 62
7
100
AcDbSpline
 70
8
 71
3
 72
8
 73
4
 74
0
 40
0
 40
0
 40
0
 40
0
 40
1
 40
1
 40
1
 40
1
 10
4.215415
 20
10.936563
 30
0.0
 10
4.215415
 20
11.756927
 30
0.0
 10
4.324624
 20
12.690433
 30
0.0
 10
4.501188
 20
13.536507
 30
0.0
  0
SPLINE
  5
122
100
AcDbEntity
  8
Layer_1
 62
7
100
AcDbSpline
 70
8
 71
3
 72
8
 73
4
 74
0
 40
0
 40
0
 40
0
 40
0
 40
1
 40
1
 40
1
 40
1
 10
4.501188
 20
13.536507
 30
0.0
 10
4.677754
 20
14.382581
 30
0.0
 10
4.921676
 20
15.141248
 30
0.0
 10
5.191105
 20
15.611953
 30
0.0
  0
SPLINE
  5
123
100
AcDbEntity
  8
Layer_1
 62
7
100
AcDbSpline
 70
8
 71
3
 72
8
 73
4
 74
0
 40
0
 40
0
 40
0
 40
0
 40
1
 40
1
 40
1
 40
1
 10
5.191105
 20
15.611953
 30
0.0
 10
5.460534
 20
16.082657
 30
0.0
 10
5.704459
 20
16.176276
 30
0.0
 10
5.881023
 20
15.947125
 30
0.0
  0
SPLINE
  5
124
100
AcDbEntity
  8
Layer_1
 62
7
100
AcDbSpline
 70
8
 71
3
 72
8
 73
4
 74
0
 40
0
 40
0
 40
0
 40
0
 40
1
 40
1
 40
1
 40
1
 10
5.881023
 20
15.947125
 30
0.0
 10
6.057590
 20
15.717975
 30
0.0
 10
6.166798
 20
15.166053
 30
0.0
 10
6.166798
 20
14.345695
 30
0.0
  0
LWPOLYLINE
  5
125
100
AcDbEntity
  8
Layer_1
 62
7
100
AcDbPolyline
 90
7
 70
0
 10
27.151386
 20
5.093660
 30
0.0
 10
28.146248
 20
3.117399
 30
0.0
 10
29.141110
 20
1.141110
 30
0.0
 10
30.141110
 20
1.641123
 30
0.0
 10
31.141111
 20
2.141108
 30
0.0
 10
30.141110
 20
4.141104
 30
0.0
 10
29.141110
 20
6.141128
 30
0.0
  0
SPLINE
  5
126
100
AcDbEntity
  8
Layer_1
 62
7
100
AcDbSpline
 70
8
 71
3
 72
8
 73
4
 74
0
 40
0
 40
0
 40
0
 40
0
 40
1
 40
1
 40
1
 40
1
 10
10.046064
 20
13.140239
 30
0.0
 10
10.046064
 20
12.296254
 30
0.0
 10
9.933582
 20
11.364356
 30
0.0
 10
9.751720
 20
10.539985
 30
0.0
  0
SPLINE
  5
127
100
AcDbEntity
  8
Layer_1
 62
7
100
AcDbSpline
 70
8
 71
3
 72
8
 73
4
 74
0
 40
0
 40
0
 40
0
 40
0
 40
1
 40
1
 40
1
 40
1
 10
9.751720
 20
10.539985
 30
0.0
 10
9.569859
 20
9.715614
 30
0.0
 10
9.318622
 20
8.998741
 30
0.0
 10
9.041110
 20
8.584777
 30
0.0
  0
SPLINE
  5
128
100
AcDbEntity
  8
Layer_1
 62
7
100
AcDbSpline
 70
8
 71
3
 72
8
 73
4
 74
0
 40
0
 40
0
 40
0
 40
0
 40
1
 40
1
 40
1
 40
1
 10
9.041110
 20
8.584777
 30
0.0
 10
8.763601
 20
8.170814
 30
0.0
 10
8.512361
 20
8.138132
 30
0.0
 10
8.330500
 20
8.419931
 30
0.0
  0
SPLINE
  5
129
100
AcDbEntity
  8
Layer_1
 62
7
100
AcDbSpline
 70
8
 71
3
 72
8
 73
4
 74
0
 40
0
 40
0
 40
0
 40
0
 40
1
 40
1
 40
1
 40
1
 10
8.330500
 20
8.419931
 30
0.0
 10
8.148639
 20
8.701730
 30
0.0
 10
8.036156
 20
9.298038
 30
0.0
 10
8.036156
 20
10.142023
 30
0.0
  0
SPLINE
  5
12a
100
AcDbEntity
  8
Layer_1
 62
7
100
AcDbSpline
 70
8
 71
3
 72
8
 73
4
 74
0
 40
0
 40
0
 40
0
 40
0
 40
1
 40
1
 40
1
 40
1
 10
8.036156
 20
10.142023
 30
0.0
 10
8.036156
 20
10.985980
 30
0.0
 10
8.148639
 20
11.917878
 30
0.0
 10
8.330500
 20
12.742249
 30
0.0
  0
SPLINE
  5
12b
100
AcDbEntity
  8
Layer_1
 62
7
100
AcDbSpline
 70
8
 71
3
 72
8
 73
4
 74
0
 40
0
 40
0
 40
0
 40
0
 40
1
 40
1
 40
1
 40
1
 10
8.330500
 20
12.742249
 30
0.0
 10
8.512361
 20
13.566620
 30
0.0
 10
8.763598
 20
14.283493
 30
0.0
 10
9.041110
 20
14.697457
 30
0.0
  0
SPLINE
  5
12c
100
AcDbEntity
  8
Layer_1
 62
7
100
AcDbSpline
 70
8
 71
3
 72
8
 73
4
 74
0
 40
0
 40
0
 40
0
 40
0
 40
1
 40
1
 40
1
 40
1
 10
9.041110
 20
14.697457
 30
0.0
 10
9.318622
 20
15.111415
 30
0.0
 10
9.569859
 20
15.144099
 30
0.0
 10
9.751720
 20
14.862300
 30
0.0
  0
SPLINE
  5
12d
100
AcDbEntity
  8
Layer_1
 62
7
100
AcDbSpline
 70
8
 71
3
 72
8
 73
4
 74
0
 40
0
 40
0
 40
0
 40
0
 40
1
 40
1
 40
1
 40
1
 10
9.751720
 20
14.862300
 30
0.0
 10
9.933582
 20
14.580504
 30
0.0
 10
10.046064
 20
13.984196
 30
0.0
 10
10.046064
 20
13.140239
 30
0.0
  0
LWPOLYLINE
  5
12e
100
AcDbEntity
  8
Layer_1
 62
7
100
AcDbPolyline
 90
2
 70
0
 10
6.166798
 20
14.345695
 30
0.0
 10
6.166798
 20
14.345695
 30
0.0
  0
LWPOLYLINE
  5
12f
100
AcDbEntity
  8
Layer_1
 62
7
100
AcDbPolyline
 90
2
 70
0
 10
10.046064
 20
13.140239
 30
0.0
 10
10.046064
 20
13.140239
 30
0.0
  0
ENDSEC
  0
SECTION
  2
OBJECTS
  0
DICTIONARY
  5
C
330
0
100
AcDbDictionary
  3
ACAD_GROUP
350
D
  3
ACAD_MLINESTYLE
350
17
  0
DICTIONARY
  5
D
330
C
100
AcDbDictionary
  0
DICTIONARY
  5
1A
330
C
100
AcDbDictionary
  0
DICTIONARY
  5
17
330
C
100
AcDbDictionary
  3
STANDARD
350
18
  0
DICTIONARY
  5
19
330
C
100
AcDbDictionary
  0
ENDSEC
  0
EOF
