<?xml version="1.0" encoding="UTF-8" standalone="no"?>
<!-- Created with Inkscape (http://www.inkscape.org/) -->

<svg
   xmlns:dc="http://purl.org/dc/elements/1.1/"
   xmlns:cc="http://creativecommons.org/ns#"
   xmlns:rdf="http://www.w3.org/1999/02/22-rdf-syntax-ns#"
   xmlns:svg="http://www.w3.org/2000/svg"
   xmlns="http://www.w3.org/2000/svg"
   xmlns:sodipodi="http://sodipodi.sourceforge.net/DTD/sodipodi-0.dtd"
   xmlns:inkscape="http://www.inkscape.org/namespaces/inkscape"
   width="744.09448"
   height="1052.3622"
   id="svg24419"
   version="1.1"
   inkscape:version="0.48.4 r9939"
   sodipodi:docname="demo_drawing5.svg">
  <defs
     id="defs24421" />
  <sodipodi:namedview
     id="base"
     pagecolor="#ffffff"
     bordercolor="#666666"
     borderopacity="1.0"
     inkscape:pageopacity="0.0"
     inkscape:pageshadow="2"
     inkscape:zoom="1.4142136"
     inkscape:cx="210.97085"
     inkscape:cy="804.97351"
     inkscape:document-units="mm"
     inkscape:current-layer="layer1"
     showgrid="true"
     inkscape:window-width="983"
     inkscape:window-height="623"
     inkscape:window-x="136"
     inkscape:window-y="181"
     inkscape:window-maximized="0"
     showguides="true"
     inkscape:guide-bbox="true"
     inkscape:snap-bbox="true"
     units="mm"
     inkscape:snap-global="true">
    <inkscape:grid
       type="xygrid"
       id="grid3043"
       empspacing="5"
       visible="true"
       enabled="true"
       snapvisiblegridlinesonly="true"
       units="mm"
       spacingx="1mm"
       spacingy="1mm" />
  </sodipodi:namedview>
  <metadata
     id="metadata24424">
    <rdf:RDF>
      <cc:Work
         rdf:about="">
        <dc:format>image/svg+xml</dc:format>
        <dc:type
           rdf:resource="http://purl.org/dc/dcmitype/StillImage" />
        <dc:title></dc:title>
      </cc:Work>
    </rdf:RDF>
  </metadata>
  <g
     inkscape:label="Layer 1"
     inkscape:groupmode="layer"
     id="layer1"
     transform="translate(0,-2.5390623e-6)">
    <path
       id="path4102"
       style="fill:#ffcc00;stroke:#000000;stroke-width:1px;stroke-linecap:butt;stroke-linejoin:miter;stroke-opacity:1"
       d="m 297.6378,329.52754 c 2.37471,-5.1323 3.5139,-10.94582 2.60398,-16.99864 -0.90991,-6.05282 -3.86892,-12.34494 -9.6906,-18.43443 -0.60727,-2.3497 -10.47558,-12.2208 -25.00201,-17.45476 -14.52643,-5.23395 -33.71098,-5.83076 -52.95074,10.36814 -1.05454,-0.91953 -2.38637,-1.96674 -3.67448,-2.70338 -1.2881,-0.73664 -2.53248,-1.1627 -3.41214,-0.83993 l -1.77165,-5.31496 -1.77166,-5.31496 -7.08661,1.77165 -7.08661,1.77166 1.77165,3.54331 1.77165,3.5433 3.54331,-1.77165 3.54331,-1.77165 1.77165,3.54331 1.77165,3.5433 c -3.20315,3.48091 -5.10239,10.65935 -6.13706,18.25039 -1.03466,7.59104 -1.20473,15.59468 -0.94955,20.72599 3.99933,1.83184 6.20813,3.34957 8.52727,4.53629 2.31914,1.18673 4.74862,2.04246 9.18927,2.55032 l 0,7.08662 0,7.08661 3.54331,0 3.5433,0 0,-7.08661 0,-7.08662 c 2.76497,0.31622 5.679,0.55596 8.65934,0.59678 2.98035,0.0408 6.027,-0.1173 9.05719,-0.59678 6.68208,-9.64678 5.85938,-18.13573 1.12003,-25.28347 -4.73935,-7.14773 -13.39535,-12.95426 -22.37987,-17.23621 1.9564,0.16138 3.38497,0.28274 4.9389,0.74599 1.55393,0.46325 3.23321,1.26839 5.69102,2.79732 l 5.31496,-3.54331 5.31496,-3.54331 7.08662,0 7.08661,0 -1.77165,3.54331 -1.77165,3.54331 -3.54331,-1.77166 -3.54331,-1.77165 -3.5433,3.54331 -3.54331,3.5433 c 6.31016,4.83267 10.32215,10.12634 11.63642,15.99414 1.31428,5.8678 -0.0691,12.30974 -4.54981,19.43893 l 0,8.85827 0,8.85827 3.54331,0 3.54331,0 0,-8.85827 -1e-5,-8.85827 c 2.01703,0.40946 4.71366,1.1684 7.32937,1.88842 2.61571,0.72002 5.1505,1.40113 6.84386,1.65491 l 0,8.85826 0,8.85826 3.54331,0 3.54331,0 0,-8.85827 0,-8.85827 c 2.58527,0.17098 4.93144,0.4788 7.23441,0.61098 2.30297,0.13218 4.56274,0.0887 6.97523,-0.44286 l 3.5251,7.00255 3.5251,7.00256 3.54331,-1.77166 3.54331,-1.77165 -3.54331,-7.08661 -3.54331,-7.08662 c 1.42163,-0.63708 2.7663,-1.02005 3.96905,-1.49518 1.20275,-0.47513 2.26359,-1.04241 3.11757,-2.04809"
       inkscape:connector-curvature="0"
       sodipodi:nodetypes="cscscscccccccccccscscccccccscscscccccccccccscccccccscccccccscccccccsc"
       transform="translate(0,2.5390623e-6)" />
    <path
       style="fill:#ffffff;stroke:#000000;stroke-width:0.52656978;stroke-miterlimit:4;stroke-opacity:1"
       d="m 209.14614,303.99955 c 0,2.90684 -0.38696,6.21451 -1.01258,9.21244 -0.62563,2.99793 -1.48993,5.68611 -2.4446,7.35396 -0.95467,1.66784 -1.81896,1.99955 -2.44459,1.1876 -0.62562,-0.81195 -1.01258,-2.76757 -1.01258,-5.6744 0,-2.90685 0.38696,-6.21452 1.01258,-9.21244 0.62563,-2.99793 1.48992,-5.6861 2.44459,-7.35395 0.95467,-1.66785 1.81897,-1.99957 2.44459,-1.18762 0.62563,0.81195 1.01259,2.76758 1.01259,5.67441 z"
       id="path3897"
       inkscape:connector-curvature="0"
       sodipodi:nodetypes="sssssssss" />
    <path
       style="fill:#ffffff;stroke:#000000;stroke-width:0.67355448;stroke-miterlimit:4;stroke-opacity:1"
       d="m 222.89157,308.27085 c 0,2.99049 -0.39856,6.29241 -1.04295,9.21342 -0.64439,2.92101 -1.5346,5.4611 -2.51791,6.92792 -0.9833,1.46682 -1.87352,1.58263 -2.51791,0.58411 -0.64439,-0.99852 -1.04295,-3.11136 -1.04295,-6.10185 0,-2.99049 0.39856,-6.29241 1.04295,-9.21341 0.64439,-2.92101 1.5346,-5.46109 2.51791,-6.9279 0.98331,-1.46682 1.87352,-1.58263 2.51791,-0.58413 0.64439,0.99851 1.04295,3.11135 1.04295,6.10184 z"
       id="path3899"
       inkscape:connector-curvature="0"
       sodipodi:nodetypes="sssssssss" />
  </g>
</svg>
fill:none;stroke:#000000;stroke-width:1px;stroke-linecap:butt;stroke-linejoin:miter;stroke-opacity:1"
       d="m 230.31496,297.63777 14.17323,-10.62992 14.17323,7.08662 -7.08662,3.5433 -3.5433,-3.5433 -10.62993,7.08661"
       id="path4102"
       inkscape:connector-curvature="0"
       transform="translate(0,2.5390623e-6)" />
  </g>
</svg>
