  0
SECTION
  2
HEADER
  9
$ACADVER
  1
AC1014
  9
$HANDSEED
  5
FFFF
  9
$MEASUREMENT
 70
     1
  0
ENDSEC
  0
SECTION
  2
TABLES
  0
TABLE
  2
VPORT
  5
8
330
0
100
AcDbSymbolTable
 70
     4
  0
VPORT
  5
2E
330
8
100
AcDbSymbolTableRecord
100
AcDbViewportTableRecord
  2
*ACTIVE
 70
     0
 10
0.0
 20
0.0
 11
1.0
 21
1.0
 12
210.0
 22
148.5
 13
0.0
 23
0.0
 14
10.0
 24
10.0
 15
10.0
 25
10.0
 16
0.0
 26
0.0
 36
1.0
 17
0.0
 27
0.0
 37
0.0
 40
341.0
 41
1.24
 42
50.0
 43
0.0
 44
0.0
 50
0.0
 51
0.0
 71
     0
 72
   100
 73
     1
 74
     3
 75
     0
 76
     0
 77
     0
 78
     0
  0
ENDTAB
  0
TABLE
  2
LTYPE
  5
5
330
0
100
AcDbSymbolTable
 70
     1
  0
LTYPE
  5
14
330
5
100
AcDbSymbolTableRecord
100
AcDbLinetypeTableRecord
  2
BYBLOCK
 70
     0
  3

 72
    65
 73
     0
 40
0.0
  0
LTYPE
  5
15
330
5
100
AcDbSymbolTableRecord
100
AcDbLinetypeTableRecord
  2
BYLAYER
 70
     0
  3

 72
    65
 73
     0
 40
0.0
  0
LTYPE
  5
16
330
5
100
AcDbSymbolTableRecord
100
AcDbLinetypeTableRecord
  2
CONTINUOUS
 70
     0
  3
Solid line
 72
    65
 73
     0
 40
0.0
  0
ENDTAB
  0
TABLE
  2
LAYER
  5
2
100
AcDbSymbolTable
 70
2
  0
LAYER
  5
50
100
AcDbSymbolTableRecord
100
AcDbLayerTableRecord
  2
0
 70
0
  6
CONTINUOUS
  0
LAYER
  5
51
100
AcDbSymbolTableRecord
100
AcDbLayerTableRecord
  2
Layer_1
 70
0
  6
CONTINUOUS
  0
ENDTAB
  0
TABLE
  2
STYLE
  5
3
330
0
100
AcDbSymbolTable
 70
     1
  0
STYLE
  5
11
330
3
100
AcDbSymbolTableRecord
100
AcDbTextStyleTableRecord
  2
STANDARD
 70
     0
 40
0.0
 41
1.0
 50
0.0
 71
     0
 42
2.5
  3
txt
  4

  0
ENDTAB
  0
TABLE
  2
VIEW
  5
6
330
0
100
AcDbSymbolTable
 70
     0
  0
ENDTAB
  0
TABLE
  2
UCS
  5
7
330
0
100
AcDbSymbolTable
 70
     0
  0
ENDTAB
  0
TABLE
  2
APPID
  5
9
330
0
100
AcDbSymbolTable
 70
     2
  0
APPID
  5
12
330
9
100
AcDbSymbolTableRecord
100
AcDbRegAppTableRecord
  2
ACAD
 70
     0
  0
ENDTAB
  0
TABLE
  2
DIMSTYLE
  5
A
330
0
100
AcDbSymbolTable
 70
     1
  0
DIMSTYLE
105
27
330
A
100
AcDbSymbolTableRecord
100
AcDbDimStyleTableRecord
  2
ISO-25
 70
     0
  3

  4

  5

  6

  7

 40
1.0
 41
2.5
 42
0.625
 43
3.75
 44
1.25
 45
0.0
 46
0.0
 47
0.0
 48
0.0
140
2.5
141
2.5
142
0.0
143
0.03937007874016
144
1.0
145
0.0
146
1.0
147
0.625
 71
     0
 72
     0
 73
     0
 74
     0
 75
     0
 76
     0
 77
     1
 78
     8
170
     0
171
     3
172
     1
173
     0
174
     0
175
     0
176
     0
177
     0
178
     0
270
     2
271
     2
272
     2
273
     2
274
     3
340
11
275
     0
280
     0
281
     0
282
     0
283
     0
284
     8
285
     0
286
     0
287
     3
288
     0
  0
ENDTAB
  0
TABLE
  2
BLOCK_RECORD
  5
1
330
0
100
AcDbSymbolTable
 70
     1
  0
BLOCK_RECORD
  5
1F
330
1
100
AcDbSymbolTableRecord
100
AcDbBlockTableRecord
  2
*MODEL_SPACE
  0
BLOCK_RECORD
  5
1B
330
1
100
AcDbSymbolTableRecord
100
AcDbBlockTableRecord
  2
*PAPER_SPACE
  0
ENDTAB
  0
ENDSEC
  0
SECTION
  2
BLOCKS
  0
BLOCK
  5
20
330
1F
100
AcDbEntity
  8
0
100
AcDbBlockBegin
  2
*MODEL_SPACE
 70
     0
 10
0.0
 20
0.0
 30
0.0
  3
*MODEL_SPACE
  1

  0
ENDBLK
  5
21
330
1F
100
AcDbEntity
  8
0
100
AcDbBlockEnd
  0
BLOCK
  5
1C
330
1B
100
AcDbEntity
 67
     1
  8
0
100
AcDbBlockBegin
  2
*PAPER_SPACE
  1

  0
ENDBLK
  5
1D
330
1B
100
AcDbEntity
 67
     1
  8
0
100
AcDbBlockEnd
  0
ENDSEC
  0
SECTION
  2
ENTITIES
  0
LWPOLYLINE
  5
100
100
AcDbEntity
  8
Layer_1
 62
7
100
AcDbPolyline
 90
137
 70
0
 10
31.141125
 20
7.141126
 30
0.0
 10
31.856200
 20
9.442394
 30
0.0
 10
31.876012
 20
11.938509
 30
0.0
 10
31.028389
 20
14.535941
 30
0.0
 10
29.141110
 20
17.141112
 30
0.0
 10
27.086159
 20
19.298921
 30
0.0
 10
22.084987
 20
22.067233
 30
0.0
 10
15.111874
 20
22.872483
 30
0.0
 10
7.141111
 20
19.141113
 30
0.0
 10
6.647321
 20
19.541945
 30
0.0
 10
6.104091
 20
19.904067
 30
0.0
 10
5.579372
 20
20.134711
 30
0.0
 10
5.141110
 20
20.141117
 30
0.0
 10
4.891109
 20
20.891117
 30
0.0
 10
4.641111
 20
21.641117
 30
0.0
 10
4.391110
 20
22.391117
 30
0.0
 10
4.141109
 20
23.141117
 30
0.0
 10
3.141111
 20
22.891116
 30
0.0
 10
2.141110
 20
22.641118
 30
0.0
 10
1.141112
 20
22.391117
 30
0.0
 10
0.141111
 20
22.141116
 30
0.0
 10
0.391112
 20
21.641117
 30
0.0
 10
0.641110
 20
21.141115
 30
0.0
 10
0.891111
 20
20.641116
 30
0.0
 10
1.141109
 20
20.141117
 30
0.0
 10
1.641111
 20
20.391118
 30
0.0
 10
2.141110
 20
20.641116
 30
0.0
 10
2.641112
 20
20.891117
 30
0.0
 10
3.141111
 20
21.141115
 30
0.0
 10
3.391112
 20
20.641116
 30
0.0
 10
3.641110
 20
20.141114
 30
0.0
 10
3.891111
 20
19.641115
 30
0.0
 10
4.141109
 20
19.141116
 30
0.0
 10
3.045604
 20
17.000771
 30
0.0
 10
2.409094
 20
13.990462
 30
0.0
 10
2.138593
 20
10.805471
 30
0.0
 10
2.141133
 20
8.141124
 30
0.0
 10
3.522246
 20
7.432718
 30
0.0
 10
4.547718
 20
6.860879
 30
0.0
 10
5.619900
 20
6.429136
 30
0.0
 10
7.141134
 20
6.141128
 30
0.0
 10
7.141134
 20
5.141130
 30
0.0
 10
7.141134
 20
4.141104
 30
0.0
 10
7.141134
 20
3.141106
 30
0.0
 10
7.141134
 20
2.141108
 30
0.0
 10
7.641133
 20
2.141108
 30
0.0
 10
8.141135
 20
2.141108
 30
0.0
 10
8.641134
 20
2.141108
 30
0.0
 10
9.141133
 20
2.141108
 30
0.0
 10
9.141133
 20
3.141106
 30
0.0
 10
9.141133
 20
4.141104
 30
0.0
 10
9.141133
 20
5.141130
 30
0.0
 10
9.141133
 20
6.141128
 30
0.0
 10
10.340267
 20
6.027759
 30
0.0
 10
11.584991
 20
5.972698
 30
0.0
 10
12.857785
 20
6.001851
 30
0.0
 10
14.141131
 20
6.141128
 30
0.0
 10
15.507947
 20
9.973367
 30
0.0
 10
14.457228
 20
13.276665
 30
0.0
 10
11.748460
 20
16.012189
 30
0.0
 10
8.141132
 20
18.141115
 30
0.0
 10
8.880661
 20
18.067797
 30
0.0
 10
9.534999
 20
17.930580
 30
0.0
 10
10.242403
 20
17.648632
 30
0.0
 10
11.141131
 20
17.141115
 30
0.0
 10
11.891131
 20
17.641116
 30
0.0
 10
12.641131
 20
18.141115
 30
0.0
 10
13.391131
 20
18.641117
 30
0.0
 10
14.141131
 20
19.141116
 30
0.0
 10
15.141132
 20
19.141116
 30
0.0
 10
16.141133
 20
19.141116
 30
0.0
 10
17.141131
 20
19.141116
 30
0.0
 10
18.141132
 20
19.141116
 30
0.0
 10
17.891133
 20
18.641117
 30
0.0
 10
17.641133
 20
18.141115
 30
0.0
 10
17.391134
 20
17.641116
 30
0.0
 10
17.141134
 20
17.141115
 30
0.0
 10
16.641135
 20
17.391115
 30
0.0
 10
16.141133
 20
17.641116
 30
0.0
 10
15.641134
 20
17.891114
 30
0.0
 10
15.141132
 20
18.141115
 30
0.0
 10
14.641133
 20
17.641116
 30
0.0
 10
14.141134
 20
17.141115
 30
0.0
 10
13.641132
 20
16.641116
 30
0.0
 10
13.141133
 20
16.141117
 30
0.0
 10
15.311893
 20
13.993707
 30
0.0
 10
16.425189
 20
11.627218
 30
0.0
 10
16.396459
 20
9.017678
 30
0.0
 10
15.141132
 20
6.141128
 30
0.0
 10
15.141132
 20
4.891109
 30
0.0
 10
15.141132
 20
3.641119
 30
0.0
 10
15.141132
 20
2.391128
 30
0.0
 10
15.141132
 20
1.141110
 30
0.0
 10
15.641134
 20
1.141110
 30
0.0
 10
16.141133
 20
1.141110
 30
0.0
 10
16.641135
 20
1.141110
 30
0.0
 10
17.141134
 20
1.141110
 30
0.0
 10
17.141134
 20
2.391128
 30
0.0
 10
17.141134
 20
3.641119
 30
0.0
 10
17.141131
 20
4.891109
 30
0.0
 10
17.141131
 20
6.141128
 30
0.0
 10
18.112026
 20
5.907504
 30
0.0
 10
19.209642
 20
5.608151
 30
0.0
 10
20.273002
 20
5.325308
 30
0.0
 10
21.141131
 20
5.141102
 30
0.0
 10
21.141131
 20
3.891111
 30
0.0
 10
21.141131
 20
2.641121
 30
0.0
 10
21.141131
 20
1.391102
 30
0.0
 10
21.141131
 20
0.141112
 30
0.0
 10
21.641133
 20
0.141112
 30
0.0
 10
22.141132
 20
0.141112
 30
0.0
 10
22.641134
 20
0.141112
 30
0.0
 10
23.141133
 20
0.141112
 30
0.0
 10
23.141133
 20
1.391102
 30
0.0
 10
23.141133
 20
2.641121
 30
0.0
 10
23.141133
 20
3.891111
 30
0.0
 10
23.141133
 20
5.141130
 30
0.0
 10
24.191863
 20
5.050791
 30
0.0
 10
25.182844
 20
4.968692
 30
0.0
 10
26.155534
 20
4.960790
 30
0.0
 10
27.151409
 20
5.093519
 30
0.0
 10
27.648840
 20
4.105374
 30
0.0
 10
28.146271
 20
3.117258
 30
0.0
 10
28.643701
 20
2.129113
 30
0.0
 10
29.141132
 20
1.140969
 30
0.0
 10
29.641134
 20
1.390961
 30
0.0
 10
30.141133
 20
1.640982
 30
0.0
 10
30.641135
 20
1.890974
 30
0.0
 10
31.141134
 20
2.140967
 30
0.0
 10
30.641135
 20
3.140965
 30
0.0
 10
30.141133
 20
4.140963
 30
0.0
 10
29.641134
 20
5.140961
 30
0.0
 10
29.141132
 20
6.140959
 30
0.0
 10
29.724373
 20
6.369107
 30
0.0
 10
30.261286
 20
6.562937
 30
0.0
 10
30.738120
 20
6.795799
 30
0.0
 10
31.141134
 20
7.140957
 30
0.0
  0
LWPOLYLINE
  5
101
100
AcDbEntity
  8
Layer_1
 62
7
100
AcDbPolyline
 90
17
 70
0
 10
6.166812
 20
14.345667
 30
0.0
 10
6.090138
 20
13.055347
 30
0.0
 10
5.881040
 20
11.745723
 30
0.0
 10
5.570903
 20
10.567219
 30
0.0
 10
5.191119
 20
9.670260
 30
0.0
 10
4.811339
 20
9.240238
 30
0.0
 10
4.501202
 20
9.335093
 30
0.0
 10
4.292103
 20
9.914129
 30
0.0
 10
4.215429
 20
10.936535
 30
0.0
 10
4.292103
 20
12.226883
 30
0.0
 10
4.501202
 20
13.536507
 30
0.0
 10
4.811336
 20
14.714983
 30
0.0
 10
5.191119
 20
15.611950
 30
0.0
 10
5.570903
 20
16.041980
 30
0.0
 10
5.881037
 20
15.947123
 30
0.0
 10
6.090138
 20
15.368107
 30
0.0
 10
6.166812
 20
14.345667
 30
0.0
  0
LWPOLYLINE
  5
102
100
AcDbEntity
  8
Layer_1
 62
7
100
AcDbPolyline
 90
17
 70
0
 10
10.046078
 20
13.140211
 30
0.0
 10
9.967104
 20
11.832760
 30
0.0
 10
9.751735
 20
10.539985
 30
0.0
 10
9.432298
 20
9.408471
 30
0.0
 10
9.041124
 20
8.584777
 30
0.0
 10
8.649953
 20
8.241426
 30
0.0
 10
8.330514
 20
8.419931
 30
0.0
 10
8.115145
 20
9.070143
 30
0.0
 10
8.036171
 20
10.141995
 30
0.0
 10
8.115145
 20
11.449474
 30
0.0
 10
8.330514
 20
12.742249
 30
0.0
 10
8.649950
 20
13.873735
 30
0.0
 10
9.041124
 20
14.697457
 30
0.0
 10
9.432298
 20
15.040783
 30
0.0
 10
9.751735
 20
14.862297
 30
0.0
 10
9.967104
 20
14.212091
 30
0.0
 10
10.046078
 20
13.140211
 30
0.0
  0
ENDSEC
  0
SECTION
  2
OBJECTS
  0
DICTIONARY
  5
C
330
0
100
AcDbDictionary
  3
ACAD_GROUP
350
D
  3
ACAD_MLINESTYLE
350
17
  0
DICTIONARY
  5
D
330
C
100
AcDbDictionary
  0
DICTIONARY
  5
1A
330
C
100
AcDbDictionary
  0
DICTIONARY
  5
17
330
C
100
AcDbDictionary
  3
STANDARD
350
18
  0
DICTIONARY
  5
19
330
C
100
AcDbDictionary
  0
ENDSEC
  0
EOF
